# 3ds Max Wavefront OBJ Exporter v0.97b - (c)2007 guruware
# File Created: 07.02.2018 21:18:51

mtllib Ceppo.mtl

#
# object Cylinder001
#

v  0.6948 0.0000 -0.2920
v  0.5207 0.0000 -0.7124
v  0.5207 0.7749 -0.7124
v  0.6948 0.7749 -0.2920
v  0.1003 0.0000 -0.8866
v  0.1003 0.7749 -0.8866
v  -0.3201 0.0000 -0.7124
v  -0.3201 0.7749 -0.7124
v  -0.4227 0.0000 -0.7549
v  -0.5968 0.0000 -0.3345
v  -0.5968 0.7749 -0.3345
v  -0.4227 0.7749 -0.7549
v  -0.4943 0.0000 -0.2920
v  -0.3201 0.0000 0.1284
v  -0.3201 0.7749 0.1284
v  -0.4943 0.7749 -0.2920
v  0.1003 0.0000 0.3025
v  0.1003 0.7749 0.3025
v  0.1286 0.0000 0.3709
v  0.5490 0.0000 0.1967
v  0.5490 0.7749 0.1967
v  0.1286 0.7749 0.3709
v  0.5207 0.0000 0.1284
v  0.5207 0.7749 0.1284
v  0.1003 0.7749 -0.2920
v  0.5207 0.8489 0.1284
v  0.1003 0.8489 0.3025
v  0.1286 0.8489 0.3709
v  0.5490 0.8489 0.1967
v  -0.4943 0.9359 -0.2920
v  -0.3201 0.9359 -0.7124
v  -0.4227 0.9359 -0.7549
v  -0.5968 0.9359 -0.3345
# 33 vertices

vn 1.0000 0.0000 -0.0000
vn 0.7071 0.0000 -0.7071
vn 0.5490 0.6303 -0.5490
vn 0.7764 0.6303 -0.0000
vn -0.0000 0.0000 -1.0000
vn 0.0000 0.6303 -0.7764
vn 0.4203 0.4825 -0.7685
vn -0.3827 0.0000 -0.9239
vn -0.9239 0.0000 0.3827
vn -0.7071 0.0000 0.7071
vn -0.5490 0.6303 0.5490
vn -0.2462 0.4825 0.8406
vn -0.8406 0.4825 0.2462
vn -0.3827 0.0000 0.9239
vn 0.9239 0.0000 0.3827
vn 1.0000 0.0000 0.0000
vn 0.7685 0.4825 -0.4203
vn 0.0000 1.0000 -0.0000
vn 0.3125 0.5774 -0.7543
vn -0.7543 0.5774 -0.3125
vn -0.3125 0.5774 0.7543
vn 0.7543 0.5774 0.3125
vn 0.3125 0.5774 0.7543
vn 0.7543 0.5774 -0.3125
vn -0.3125 0.5774 -0.7543
vn -0.7543 0.5774 0.3125
# 26 vertex normals

vt 0.7575 0.0429 -8.8501
vt 0.8688 0.0607 -8.8501
vt 0.8384 0.2502 -8.8501
vt 0.7272 0.2324 -8.8501
vt 0.9800 0.0786 8.8501
vt 0.9497 0.2680 -8.8501
vt 0.0200 0.0786 8.8501
vt 0.1205 0.0562 -8.8501
vt 0.1586 0.2274 -8.8501
vt 0.0580 0.2497 -8.8501
vt 0.1449 0.0509 -8.8501
vt 0.2525 0.0326 -8.8501
vt 0.2596 0.2079 -8.8501
vt 0.1810 0.2162 -8.8501
vt 0.2789 0.0314 -8.8501
vt 0.3869 0.0261 -8.8501
vt 0.3959 0.2100 -8.8501
vt 0.2878 0.2153 -8.8501
vt 0.4949 0.0208 -8.8501
vt 0.5039 0.2047 -8.8501
vt 0.5123 0.0200 -8.8501
vt 0.6282 0.0222 -8.8501
vt 0.5980 0.2045 -8.8501
vt 0.5212 0.1981 -8.8501
vt 0.6463 0.0251 -8.8501
vt 0.6159 0.2145 -8.8501
vt 0.1578 0.5551 0.0000
vt 0.0604 0.5147 0.0000
vt 0.1578 0.4173 0.0000
vt 0.0200 0.4173 0.0000
vt 0.0604 0.3198 0.0000
vt 0.1578 0.2795 0.0000
vt 0.2553 0.3198 0.0000
vt 0.2956 0.4173 0.0000
vt 0.2553 0.5147 0.0000
vt 0.6008 0.2317 -8.8501
vt 0.5134 0.2248 -8.8501
vt 0.5265 0.2102 -8.8501
vt 0.5924 0.2184 -8.8501
vt 0.4045 0.3357 -0.1039
vt 0.3071 0.2953 -0.1039
vt 0.3136 0.2795 0.1039
vt 0.4111 0.3198 0.1039
vt 0.2679 0.2537 -8.8501
vt 0.1815 0.2620 -8.8501
vt 0.1951 0.2384 -8.8501
vt 0.2538 0.2372 -8.8501
vt 0.0343 0.5665 -0.1199
vt 0.1317 0.6069 -0.1199
vt 0.1174 0.6414 0.1199
vt 0.0200 0.6010 0.1199
# 51 texture coords

g Cylinder001
usemtl wire_008008136
s 1
f 1/1/1 2/2/2 3/3/3 4/4/4 
f 2/2/2 5/5/5 6/6/6 3/3/3 
f 5/7/5 7/8/5 8/9/7 6/10/6 
f 9/11/8 10/12/9 11/13/9 12/14/8 
f 13/15/10 14/16/10 15/17/11 16/18/12 
f 14/16/10 17/19/10 18/20/13 15/17/11 
f 19/21/14 20/22/15 21/23/15 22/24/14 
f 23/25/16 1/1/1 4/4/4 24/26/17 
f 4/27/4 3/28/3 25/29/18 
f 3/28/3 6/30/6 25/29/18 
f 6/30/6 8/31/7 25/29/18 
f 8/31/7 16/32/12 25/29/18 
f 16/32/12 15/33/11 25/29/18 
f 15/33/11 18/34/13 25/29/18 
f 18/34/13 24/35/17 25/29/18 
f 24/35/17 4/27/4 25/29/18 
f 18/20/13 17/19/10 19/21/14 22/24/14 
f 23/25/16 24/26/17 21/23/15 20/22/15 
f 26/36/19 27/37/20 28/38/21 29/39/22 
f 24/40/17 18/41/13 27/42/20 26/43/19 
f 18/20/13 22/24/14 28/38/21 27/37/20 
f 22/24/14 21/23/15 29/39/22 28/38/21 
f 21/23/15 24/26/17 26/36/19 29/39/22 
f 8/9/7 7/8/5 9/11/8 12/14/8 
f 13/15/10 16/18/12 11/13/9 10/12/9 
f 30/44/23 31/45/24 32/46/25 33/47/26 
f 16/48/12 8/49/7 31/50/24 30/51/23 
f 8/9/7 12/14/8 32/46/25 31/45/24 
f 12/14/8 11/13/9 33/47/26 32/46/25 
f 11/13/9 16/18/12 30/44/23 33/47/26 
# 22 polygons - 8 triangles

