# 3ds Max Wavefront OBJ Exporter v0.97b - (c)2007 guruware
# File Created: 07.02.2018 16:57:02

mtllib capelli_03.mtl

#
# object Group37705
#

v  0.2050 1.2681 -0.2102
v  0.2130 1.3001 -0.3194
v  0.2619 1.3030 -0.2460
v  0.2903 1.3482 -0.1842
v  0.2138 1.2872 -0.1627
v  0.3419 1.5967 0.0825
v  0.3357 1.5502 0.0823
v  0.3567 1.5460 0.0155
v  0.3520 1.6192 0.0323
v  0.3481 1.6352 0.1188
v  0.3219 1.5819 0.1319
v  0.1606 1.8857 -0.4046
v  0.1636 1.8366 -0.4073
v  0.1146 1.8391 -0.4328
v  0.1224 1.9059 -0.4123
v  -0.0026 1.8423 -0.4231
v  -0.0026 1.9061 -0.3843
v  0.0621 1.9279 -0.4067
v  0.0580 1.8529 -0.4426
v  0.0693 1.7383 -0.5075
v  -0.0026 1.7306 -0.4910
v  -0.0026 1.2173 -0.2657
v  0.0671 1.1986 -0.2668
v  0.0670 1.2231 -0.1701
v  -0.0026 1.2421 -0.1698
v  -0.0026 1.2505 -0.3829
v  0.0694 1.2359 -0.3893
v  0.1208 1.2599 -0.3702
v  0.1212 1.2198 -0.2512
v  -0.0026 1.3029 -0.4224
v  0.0697 1.2896 -0.4309
v  0.1282 1.3105 -0.4067
v  0.1873 1.3171 -0.3996
v  0.1756 1.2719 -0.3622
v  0.0743 1.4330 -0.4814
v  0.1526 1.4414 -0.4667
v  0.2098 1.4508 -0.4464
v  0.2455 1.4731 -0.3787
v  0.2254 1.3471 -0.3472
v  0.3107 1.4755 -0.2847
v  0.2740 1.3538 -0.2601
v  0.2194 1.5357 -0.4617
v  0.2595 1.5529 -0.3866
v  0.3248 1.5521 -0.2812
v  0.3722 1.5522 -0.1662
v  0.3783 1.4819 -0.1804
v  0.2576 1.6244 -0.3787
v  0.3189 1.6380 -0.2624
v  0.3524 1.6559 -0.1434
v  0.3169 1.7429 -0.2472
v  0.3603 1.7608 -0.1180
v  0.3656 1.7458 -0.0131
v  0.3559 1.6516 -0.0468
v  0.3093 1.8157 -0.2372
v  0.3390 1.8241 -0.0987
v  0.3402 1.8024 0.0079
v  0.3421 1.7552 0.0996
v  0.3651 1.6872 0.0638
v  0.2273 1.8831 -0.0707
v  0.2307 1.8687 0.0269
v  0.2311 1.8222 0.0956
v  0.2255 1.7652 0.1430
v  0.3357 1.6915 0.1514
v  0.2164 1.7037 0.1737
v  0.3083 1.6236 0.1760
v  0.2103 1.8840 0.1467
v  0.2004 1.8127 0.1879
v  0.1836 1.7439 0.2008
v  0.1743 1.6727 0.2035
v  0.2046 1.6388 0.1861
v  0.1461 1.8430 0.2112
v  0.1359 1.7775 0.2294
v  0.1270 1.7028 0.2127
v  0.1254 1.6253 0.1928
v  0.1682 1.6008 0.1994
v  0.0749 1.8041 0.2331
v  0.0723 1.7326 0.2239
v  0.0773 1.6468 0.1886
v  -0.0026 1.7321 0.1945
v  -0.0031 1.6519 0.1598
v  -0.0026 1.7977 0.2051
v  0.0854 1.8594 0.2150
v  -0.0026 1.8424 0.1872
v  0.0972 1.9174 0.1634
v  -0.0026 1.8891 0.1330
v  0.1086 1.9707 0.0747
v  -0.0026 1.9329 0.0503
v  0.1074 1.9954 -0.0330
v  -0.0026 1.9563 -0.0425
v  0.0898 1.9892 -0.1723
v  -0.0026 1.9447 -0.1598
v  0.0693 1.9528 -0.3047
v  -0.0026 1.9202 -0.2858
v  0.1501 1.9838 -0.1835
v  0.1304 1.9398 -0.3153
v  0.1905 1.9483 -0.1874
v  0.1691 1.9002 -0.3167
v  0.2200 1.8795 -0.1953
v  0.2007 1.8608 -0.3282
v  0.2530 1.7822 -0.3561
v  0.2049 1.7563 -0.4505
v  0.1361 1.7394 -0.4901
v  0.1457 1.6775 -0.4982
v  0.0774 1.6704 -0.5197
v  -0.0026 1.6643 -0.5042
v  0.0834 1.5943 -0.5216
v  -0.0026 1.5914 -0.5073
v  0.0803 1.5148 -0.5035
v  -0.0026 1.5178 -0.4907
v  -0.0026 1.4422 -0.4732
v  0.1571 1.5228 -0.4878
v  0.1556 1.6011 -0.5019
v  0.2189 1.6098 -0.4671
v  0.2106 1.6941 -0.4561
v  0.2559 1.7159 -0.3625
v  0.2170 1.9493 -0.0478
v  0.2189 1.9302 0.0602
v  0.1850 1.9805 -0.0391
v  0.1823 1.9565 0.0722
v  0.1672 1.9070 0.1630
v  0.1943 1.5774 0.1798
v  0.2692 1.5160 0.1671
v  0.2825 1.5658 0.1715
v  0.3050 1.5296 0.1334
v  0.3063 1.4825 0.1421
v  0.2933 1.4381 0.1457
v  0.3210 1.4180 0.0917
v  0.3423 1.4993 0.0872
v  0.3515 1.4041 0.0015
v  0.3715 1.4803 0.0131
v  0.3521 1.3896 -0.0966
v  0.3833 1.4810 -0.0849
v  0.3699 1.5469 -0.0736
v  0.3246 1.3851 -0.1859
v  0.3177 1.3651 -0.1039
v  0.2344 1.3323 -0.0918
v  0.3255 1.3735 -0.0083
v  0.3068 1.3929 0.0840
v  0.2684 1.4058 0.1381
v  0.2033 1.2959 -0.1041
v  0.1850 1.2421 -0.1746
v  0.1687 1.2314 -0.2433
v  0.1305 1.2291 -0.1688
v  0.0749 1.2832 -0.1055
v  -0.0031 1.3046 -0.1137
v  0.1466 1.2850 -0.1024
v  -0.2670 1.3030 -0.2460
v  -0.2181 1.3001 -0.3194
v  -0.2101 1.2681 -0.2102
v  -0.2189 1.2872 -0.1627
v  -0.2954 1.3482 -0.1842
v  -0.3470 1.5967 0.0825
v  -0.3572 1.6192 0.0323
v  -0.3618 1.5460 0.0155
v  -0.3408 1.5502 0.0823
v  -0.3270 1.5819 0.1319
v  -0.3532 1.6352 0.1188
v  -0.1657 1.8857 -0.4046
v  -0.1275 1.9059 -0.4123
v  -0.1197 1.8391 -0.4328
v  -0.1687 1.8366 -0.4073
v  -0.0631 1.8529 -0.4426
v  -0.0672 1.9279 -0.4067
v  -0.0744 1.7383 -0.5075
v  -0.0722 1.2231 -0.1701
v  -0.0722 1.1986 -0.2668
v  -0.0745 1.2359 -0.3893
v  -0.1263 1.2198 -0.2512
v  -0.1259 1.2599 -0.3702
v  -0.0748 1.2896 -0.4309
v  -0.1333 1.3105 -0.4067
v  -0.1807 1.2719 -0.3622
v  -0.1924 1.3171 -0.3996
v  -0.1577 1.4414 -0.4667
v  -0.0794 1.4330 -0.4814
v  -0.2149 1.4508 -0.4464
v  -0.2305 1.3471 -0.3472
v  -0.2506 1.4731 -0.3787
v  -0.2791 1.3538 -0.2601
v  -0.3158 1.4755 -0.2847
v  -0.2646 1.5529 -0.3866
v  -0.2245 1.5357 -0.4617
v  -0.3299 1.5521 -0.2812
v  -0.3834 1.4819 -0.1804
v  -0.3773 1.5522 -0.1662
v  -0.3240 1.6380 -0.2624
v  -0.2627 1.6244 -0.3787
v  -0.3575 1.6559 -0.1434
v  -0.3654 1.7608 -0.1180
v  -0.3220 1.7429 -0.2472
v  -0.3610 1.6516 -0.0468
v  -0.3707 1.7458 -0.0131
v  -0.3441 1.8241 -0.0987
v  -0.3144 1.8157 -0.2372
v  -0.3453 1.8024 0.0079
v  -0.3702 1.6872 0.0638
v  -0.3472 1.7552 0.0996
v  -0.2358 1.8687 0.0269
v  -0.2324 1.8831 -0.0707
v  -0.2362 1.8222 0.0956
v  -0.3408 1.6915 0.1514
v  -0.2306 1.7652 0.1430
v  -0.3135 1.6236 0.1760
v  -0.2215 1.7037 0.1737
v  -0.2056 1.8127 0.1879
v  -0.2154 1.8840 0.1467
v  -0.1887 1.7439 0.2008
v  -0.2097 1.6388 0.1861
v  -0.1794 1.6727 0.2035
v  -0.1410 1.7775 0.2294
v  -0.1512 1.8430 0.2112
v  -0.1321 1.7028 0.2127
v  -0.1743 1.6008 0.1994
v  -0.1315 1.6253 0.1928
v  -0.0774 1.7326 0.2239
v  -0.0800 1.8041 0.2331
v  -0.0835 1.6468 0.1886
v  -0.0905 1.8594 0.2150
v  -0.1023 1.9174 0.1634
v  -0.1137 1.9707 0.0747
v  -0.1125 1.9954 -0.0330
v  -0.0949 1.9892 -0.1723
v  -0.0744 1.9528 -0.3047
v  -0.1355 1.9398 -0.3153
v  -0.1552 1.9838 -0.1835
v  -0.1742 1.9002 -0.3167
v  -0.1956 1.9483 -0.1874
v  -0.2058 1.8608 -0.3282
v  -0.2251 1.8795 -0.1953
v  -0.2581 1.7822 -0.3561
v  -0.2100 1.7563 -0.4505
v  -0.1412 1.7394 -0.4901
v  -0.0826 1.6704 -0.5197
v  -0.1508 1.6775 -0.4982
v  -0.0885 1.5943 -0.5216
v  -0.0854 1.5148 -0.5035
v  -0.1622 1.5228 -0.4878
v  -0.1607 1.6011 -0.5019
v  -0.2240 1.6098 -0.4671
v  -0.2157 1.6941 -0.4561
v  -0.2610 1.7159 -0.3625
v  -0.2221 1.9493 -0.0478
v  -0.2240 1.9302 0.0602
v  -0.1874 1.9565 0.0722
v  -0.1901 1.9805 -0.0391
v  -0.1723 1.9070 0.1630
v  -0.2005 1.5774 0.1798
v  -0.2876 1.5658 0.1715
v  -0.2753 1.5160 0.1671
v  -0.3101 1.5296 0.1334
v  -0.2906 1.4378 0.1438
v  -0.2568 1.4676 0.1693
v  -0.3474 1.4993 0.0872
v  -0.3261 1.4180 0.0917
v  -0.3766 1.4803 0.0131
v  -0.3566 1.4041 0.0015
v  -0.3884 1.4810 -0.0849
v  -0.3572 1.3896 -0.0966
v  -0.3750 1.5469 -0.0736
v  -0.3297 1.3851 -0.1859
v  -0.2405 1.3323 -0.0918
v  -0.3238 1.3651 -0.1039
v  -0.3316 1.3735 -0.0083
v  -0.3129 1.3929 0.0840
v  -0.2746 1.4058 0.1381
v  -0.2422 1.4318 0.1668
v  -0.1901 1.2421 -0.1746
v  -0.2094 1.2959 -0.1041
v  -0.1738 1.2314 -0.2433
v  -0.1356 1.2291 -0.1688
v  -0.0811 1.2832 -0.1055
v  -0.1528 1.2850 -0.1024
# 272 vertices

vn 0.6196 -0.7811 0.0771
vn 0.7506 -0.5736 -0.3280
vn 0.7404 -0.6459 -0.1859
vn 0.6918 -0.7218 -0.0184
vn 0.7366 -0.6581 0.1562
vn 0.9575 -0.1830 0.2229
vn 0.9254 -0.0243 0.3783
vn 0.9721 0.0995 0.2124
vn 0.9923 -0.0794 0.0950
vn 0.9249 -0.1907 0.3289
vn 0.8636 -0.2647 0.4291
vn 0.7431 0.3894 -0.5442
vn 0.6360 0.4418 -0.6327
vn 0.3114 0.3917 -0.8658
vn 0.3220 0.6494 -0.6889
vn 0.0000 0.4815 -0.8764
vn 0.0000 0.8510 -0.5252
vn -0.0981 0.8045 -0.5858
vn -0.0844 0.4377 -0.8952
vn -0.0031 0.3493 -0.9370
vn 0.0000 0.3611 -0.9325
vn 0.0000 -0.9998 -0.0195
vn 0.0570 -0.9975 -0.0426
vn -0.0726 -0.8907 0.4488
vn -0.0005 -0.8397 0.5430
vn 0.0000 -0.8201 -0.5723
vn 0.1392 -0.8167 -0.5600
vn 0.4030 -0.7535 -0.5194
vn 0.2939 -0.9536 -0.0654
vn 0.0000 -0.4660 -0.8848
vn 0.1428 -0.4844 -0.8631
vn 0.3285 -0.4821 -0.8122
vn 0.5300 -0.4886 -0.6931
vn 0.5015 -0.7270 -0.4690
vn 0.0492 -0.3197 -0.9462
vn 0.2892 -0.3504 -0.8908
vn 0.6575 -0.2888 -0.6959
vn 0.8586 -0.2231 -0.4616
vn 0.8372 -0.3520 -0.4186
vn 0.8113 -0.2366 -0.5345
vn 0.8373 -0.3671 -0.4051
vn 0.6882 -0.1277 -0.7142
vn 0.8753 -0.0653 -0.4792
vn 0.8809 0.0341 -0.4720
vn 0.9698 0.1705 -0.1741
vn 0.9514 -0.1422 -0.2730
vn 0.8873 0.0939 -0.4515
vn 0.9178 0.1115 -0.3810
vn 0.9817 0.0802 -0.1729
vn 0.9102 0.1051 -0.4006
vn 0.9766 0.1573 -0.1465
vn 0.9822 0.1801 0.0536
vn 0.9999 0.0017 -0.0114
vn 0.7809 0.5355 -0.3216
vn 0.7506 0.6599 -0.0345
vn 0.7491 0.6252 0.2192
vn 0.7198 0.5110 0.4699
vn 0.9907 0.0113 0.1353
vn 0.8141 0.5796 -0.0359
vn 0.8561 0.4899 0.1646
vn 0.7929 0.4433 0.4182
vn 0.6499 0.3041 0.6965
vn 0.6389 0.2416 0.7304
vn 0.5068 0.1895 0.8409
vn 0.4536 -0.0698 0.8885
vn 0.7712 0.4041 0.4919
vn 0.7036 0.1309 0.6984
vn 0.5678 -0.0052 0.8231
vn 0.3157 -0.0491 0.9476
vn 0.3350 -0.0312 0.9417
vn 0.3386 0.3404 0.8772
vn 0.2755 -0.0101 0.9613
vn 0.0707 -0.2018 0.9769
vn -0.2453 -0.2358 0.9403
vn 0.3324 -0.1281 0.9344
vn -0.1259 0.1211 0.9846
vn -0.1428 -0.2311 0.9624
vn -0.2218 -0.3319 0.9169
vn -0.0007 -0.2803 0.9599
vn 0.0012 -0.3974 0.9176
vn -0.0000 0.1031 0.9947
vn -0.0935 0.5025 0.8595
vn -0.0000 0.5703 0.8215
vn -0.1230 0.7784 0.6156
vn -0.0000 0.8280 0.5607
vn -0.0849 0.9279 0.3630
vn -0.0000 0.9372 0.3488
vn -0.0685 0.9927 0.0991
vn -0.0000 0.9950 0.1002
vn -0.1708 0.9769 -0.1282
vn 0.0000 0.9896 -0.1437
vn -0.1601 0.9535 -0.2553
vn 0.0000 0.9826 -0.1856
vn 0.3519 0.9152 -0.1964
vn 0.4050 0.8531 -0.3290
vn 0.7814 0.5830 -0.2226
vn 0.7398 0.6125 -0.2787
vn 0.7397 0.6557 -0.1513
vn 0.6456 0.6580 -0.3875
vn 0.7973 0.3535 -0.4892
vn 0.6393 0.3445 -0.6874
vn 0.3280 0.3340 -0.8837
vn 0.3882 0.1470 -0.9098
vn 0.0439 0.1082 -0.9932
vn 0.0000 0.0988 -0.9951
vn 0.0516 -0.0876 -0.9948
vn 0.0000 -0.0923 -0.9957
vn 0.0340 -0.2437 -0.9692
vn 0.0000 -0.2291 -0.9734
vn 0.0000 -0.2813 -0.9596
vn 0.3271 -0.1995 -0.9237
vn 0.3828 -0.0373 -0.9231
vn 0.7137 0.0414 -0.6992
vn 0.7162 0.1510 -0.6813
vn 0.8810 0.1018 -0.4620
vn 0.8775 0.4775 -0.0457
vn 0.8453 0.4911 0.2104
vn 0.4619 0.8859 0.0430
vn 0.4168 0.8379 0.3526
vn 0.3572 0.6631 0.6578
vn 0.2133 -0.1164 0.9700
vn 0.5056 -0.0895 0.8581
vn 0.3756 -0.1954 0.9059
vn 0.7954 -0.0993 0.5979
vn 0.9090 0.0332 0.4155
vn 0.7509 -0.3925 0.5311
vn 0.8031 -0.3890 0.4513
vn 0.8695 -0.0285 0.4930
vn 0.8545 -0.4715 0.2178
vn 0.9656 -0.0686 0.2510
vn 0.8112 -0.5837 -0.0343
vn 0.9973 -0.0670 0.0308
vn 0.9869 0.1504 0.0582
vn 0.7904 -0.5497 -0.2703
vn 0.5260 -0.8504 0.0134
vn 0.5920 -0.7795 0.2045
vn 0.7061 -0.6846 0.1809
vn 0.7344 -0.5416 0.4091
vn 0.6129 -0.5746 0.5425
vn 0.5055 -0.7442 0.4366
vn 0.5661 -0.7989 0.2032
vn 0.4906 -0.8658 -0.0987
vn 0.1590 -0.9124 0.3772
vn -0.1326 -0.7179 0.6834
vn 0.0007 -0.6945 0.7195
vn 0.1223 -0.7783 0.6159
vn -0.7400 -0.6492 -0.1757
vn -0.7506 -0.5736 -0.3280
vn -0.6288 -0.7734 0.0810
vn -0.7428 -0.6550 0.1387
vn -0.6891 -0.7243 -0.0218
vn -0.9575 -0.1830 0.2229
vn -0.9923 -0.0794 0.0950
vn -0.9721 0.0995 0.2124
vn -0.9254 -0.0243 0.3783
vn -0.8636 -0.2647 0.4291
vn -0.9249 -0.1907 0.3289
vn -0.7431 0.3894 -0.5442
vn -0.3220 0.6494 -0.6889
vn -0.3114 0.3917 -0.8658
vn -0.6360 0.4418 -0.6327
vn 0.0844 0.4377 -0.8952
vn 0.0981 0.8045 -0.5858
vn 0.0031 0.3493 -0.9370
vn 0.0730 -0.8904 0.4494
vn -0.0570 -0.9975 -0.0426
vn -0.1392 -0.8167 -0.5600
vn -0.2939 -0.9536 -0.0654
vn -0.4030 -0.7535 -0.5194
vn -0.1428 -0.4844 -0.8631
vn -0.3285 -0.4821 -0.8122
vn -0.5015 -0.7270 -0.4690
vn -0.5300 -0.4886 -0.6931
vn -0.2892 -0.3504 -0.8908
vn -0.0492 -0.3197 -0.9462
vn -0.6575 -0.2888 -0.6959
vn -0.8372 -0.3520 -0.4186
vn -0.8586 -0.2231 -0.4616
vn -0.8373 -0.3671 -0.4051
vn -0.8113 -0.2366 -0.5345
vn -0.8753 -0.0653 -0.4792
vn -0.6882 -0.1277 -0.7142
vn -0.8809 0.0341 -0.4720
vn -0.9514 -0.1422 -0.2730
vn -0.9698 0.1705 -0.1741
vn -0.9178 0.1115 -0.3810
vn -0.8873 0.0939 -0.4515
vn -0.9817 0.0802 -0.1729
vn -0.9766 0.1573 -0.1465
vn -0.9102 0.1051 -0.4006
vn -0.9999 0.0017 -0.0114
vn -0.9822 0.1801 0.0536
vn -0.7506 0.6599 -0.0345
vn -0.7809 0.5355 -0.3216
vn -0.7491 0.6252 0.2192
vn -0.9907 0.0113 0.1353
vn -0.7198 0.5110 0.4699
vn -0.8561 0.4899 0.1646
vn -0.8141 0.5796 -0.0359
vn -0.7929 0.4433 0.4182
vn -0.6389 0.2416 0.7304
vn -0.6499 0.3041 0.6965
vn -0.4536 -0.0698 0.8885
vn -0.5069 0.1895 0.8409
vn -0.7036 0.1309 0.6984
vn -0.7712 0.4041 0.4919
vn -0.5678 -0.0052 0.8231
vn -0.3376 -0.0292 0.9408
vn -0.3163 -0.0474 0.9475
vn -0.2755 -0.0101 0.9613
vn -0.3386 0.3404 0.8772
vn -0.0704 -0.2026 0.9767
vn -0.3386 -0.1232 0.9328
vn 0.2470 -0.2387 0.9391
vn 0.1433 -0.2320 0.9621
vn 0.1259 0.1211 0.9846
vn 0.2215 -0.3339 0.9162
vn 0.0935 0.5025 0.8595
vn 0.1230 0.7784 0.6156
vn 0.0849 0.9279 0.3630
vn 0.0685 0.9927 0.0991
vn 0.1708 0.9769 -0.1282
vn 0.1601 0.9535 -0.2553
vn -0.4050 0.8531 -0.3290
vn -0.3519 0.9152 -0.1964
vn -0.7398 0.6125 -0.2787
vn -0.7814 0.5830 -0.2226
vn -0.6456 0.6580 -0.3875
vn -0.7397 0.6557 -0.1513
vn -0.7973 0.3535 -0.4892
vn -0.6393 0.3445 -0.6874
vn -0.3280 0.3340 -0.8837
vn -0.0439 0.1082 -0.9932
vn -0.3882 0.1470 -0.9098
vn -0.0516 -0.0876 -0.9948
vn -0.0340 -0.2437 -0.9692
vn -0.3271 -0.1995 -0.9237
vn -0.3828 -0.0373 -0.9231
vn -0.7137 0.0414 -0.6992
vn -0.7162 0.1510 -0.6813
vn -0.8810 0.1018 -0.4620
vn -0.8775 0.4775 -0.0457
vn -0.8453 0.4911 0.2104
vn -0.4168 0.8379 0.3526
vn -0.4619 0.8859 0.0430
vn -0.3572 0.6631 0.6578
vn -0.2140 -0.1134 0.9702
vn -0.3762 -0.1926 0.9063
vn -0.5525 -0.1426 0.8212
vn -0.7792 -0.1545 0.6074
vn -0.6364 -0.2547 0.7281
vn -0.4800 -0.1903 0.8564
vn -0.8695 -0.0285 0.4930
vn -0.7977 -0.3599 0.4838
vn -0.9656 -0.0686 0.2510
vn -0.8586 -0.4641 0.2178
vn -0.9973 -0.0670 0.0308
vn -0.8148 -0.5786 -0.0365
vn -0.9869 0.1504 0.0582
vn -0.7904 -0.5497 -0.2703
vn -0.5922 -0.7816 0.1961
vn -0.5361 -0.8441 0.0049
vn -0.7196 -0.6707 0.1800
vn -0.7503 -0.5198 0.4084
vn -0.5625 -0.4213 0.7114
vn -0.4389 -0.2895 0.8506
vn -0.5658 -0.7995 0.2016
vn -0.5106 -0.7453 0.4288
vn -0.4906 -0.8658 -0.0987
vn -0.1587 -0.9127 0.3765
vn 0.1316 -0.7170 0.6846
vn -0.1229 -0.7794 0.6144
# 272 vertex normals

g Group37705
usemtl default
s 1
f 1//1 2//2 3//3 
f 3//3 4//4 5//5 1//1 
f 6//6 7//7 8//8 9//9 
f 6//6 10//10 11//11 7//7 
f 12//12 13//13 14//14 15//15 
f 16//16 17//17 18//18 19//19 
f 16//16 19//19 20//20 21//21 
f 22//22 23//23 24//24 25//25 
f 22//22 26//26 27//27 23//23 
f 27//27 28//28 29//29 23//23 
f 27//27 26//26 30//30 31//31 
f 27//27 31//31 32//32 28//28 
f 32//32 33//33 34//34 28//28 
f 32//32 31//31 35//35 36//36 
f 32//32 36//36 37//37 33//33 
f 37//37 38//38 39//39 33//33 
f 38//38 40//40 41//41 39//39 
f 38//38 37//37 42//42 43//43 
f 38//38 43//43 44//44 40//40 
f 44//44 45//45 46//46 40//40 
f 44//44 43//43 47//47 48//48 
f 44//44 48//48 49//49 45//45 
f 48//48 50//50 51//51 49//49 
f 51//51 52//52 53//53 49//49 
f 51//51 50//50 54//54 55//55 
f 51//51 55//55 56//56 52//52 
f 56//56 57//57 58//58 52//52 
f 56//56 55//55 59//59 60//60 
f 56//56 60//60 61//61 57//57 
f 61//61 62//62 63//63 57//57 
f 62//62 64//64 65//65 63//63 
f 62//62 61//61 66//66 67//67 
f 62//62 67//67 68//68 64//64 
f 68//68 69//69 70//70 64//64 
f 68//68 67//67 71//71 72//72 
f 68//68 72//72 73//73 69//69 
f 73//73 74//74 75//75 69//69 
f 73//73 72//72 76//76 77//77 
f 73//73 77//77 78//78 74//74 
f 78//78 77//77 79//79 80//80 
f 79//79 77//77 76//76 81//81 
f 81//81 76//76 82//82 83//83 
f 83//83 82//82 84//84 85//85 
f 85//85 84//84 86//86 87//87 
f 87//87 86//86 88//88 89//89 
f 89//89 88//88 90//90 91//91 
f 91//91 90//90 92//92 93//93 
f 93//93 92//92 18//18 17//17 
f 92//92 90//90 94//94 95//95 
f 92//92 95//95 15//15 18//18 
f 95//95 94//94 96//96 97//97 
f 95//95 97//97 12//12 15//15 
f 97//97 96//96 98//98 99//99 
f 97//97 99//99 13//13 12//12 
f 99//99 98//98 54//54 100//100 
f 99//99 100//100 101//101 13//13 
f 101//101 102//102 14//14 13//13 
f 102//102 20//20 19//19 14//14 
f 20//20 102//102 103//103 104//104 
f 20//20 104//104 105//105 21//21 
f 105//105 104//104 106//106 107//107 
f 107//107 106//106 108//108 109//109 
f 109//109 108//108 35//35 110//110 
f 110//110 35//35 31//31 30//30 
f 35//35 108//108 111//111 36//36 
f 111//111 42//42 37//37 36//36 
f 111//111 108//108 106//106 112//112 
f 111//111 112//112 113//113 42//42 
f 113//113 47//47 43//43 42//42 
f 113//113 112//112 103//103 114//114 
f 113//113 114//114 115//115 47//47 
f 115//115 50//50 48//48 47//47 
f 115//115 114//114 101//101 100//100 
f 115//115 100//100 54//54 50//50 
f 54//54 98//98 59//59 55//55 
f 59//59 98//98 96//96 116//116 
f 59//59 116//116 117//117 60//60 
f 117//117 66//66 61//61 60//60 
f 117//117 116//116 118//118 119//119 
f 117//117 119//119 120//120 66//66 
f 120//120 71//71 67//67 66//66 
f 120//120 119//119 86//86 84//84 
f 120//120 84//84 82//82 71//71 
f 119//119 118//118 88//88 86//86 
f 118//118 116//116 96//96 94//94 
f 118//118 94//94 90//90 88//88 
f 114//114 103//103 102//102 101//101 
f 112//112 106//106 104//104 103//103 
f 82//82 76//76 72//72 71//71 
f 121//121 122//122 123//123 70//70 
f 121//121 70//70 69//69 75//75 
f 123//123 65//65 64//64 70//70 
f 65//65 123//123 124//124 11//11 
f 65//65 11//11 10//10 63//63 
f 124//124 123//123 122//122 125//125 
f 124//124 125//125 126//126 127//127 128//128 
f 124//124 128//128 7//7 11//11 
f 128//128 127//127 129//129 130//130 
f 128//128 130//130 8//8 7//7 
f 130//130 129//129 131//131 132//132 
f 130//130 132//132 133//133 8//8 
f 133//133 132//132 46//46 45//45 
f 133//133 45//45 49//49 53//53 
f 133//133 53//53 9//9 8//8 
f 46//46 132//132 131//131 134//134 
f 46//46 134//134 41//41 40//40 
f 41//41 134//134 4//4 3//3 
f 41//41 3//3 2//2 39//39 
f 4//4 135//135 136//136 5//5 
f 4//4 134//134 131//131 135//135 
f 131//131 129//129 137//137 135//135 
f 137//137 129//129 127//127 138//138 
f 127//127 126//126 139//139 138//138 
f 136//136 140//140 141//141 5//5 
f 5//5 141//141 142//142 1//1 
f 141//141 143//143 29//29 142//142 
f 142//142 29//29 28//28 34//34 
f 142//142 34//34 2//2 1//1 
f 143//143 24//24 23//23 29//29 
f 24//24 144//144 145//145 25//25 
f 24//24 143//143 146//146 144//144 
f 146//146 143//143 141//141 140//140 
f 63//63 10//10 58//58 57//57 
f 58//58 10//10 6//6 9//9 
f 58//58 9//9 53//53 52//52 
f 39//39 2//2 34//34 33//33 
f 19//19 18//18 15//15 14//14 
f 147//147 148//148 149//149 
f 149//149 150//150 151//151 147//147 
f 152//152 153//153 154//154 155//155 
f 152//152 155//155 156//156 157//157 
f 158//158 159//159 160//160 161//161 
f 16//16 162//162 163//163 17//17 
f 16//16 21//21 164//164 162//162 
f 22//22 25//25 165//165 166//166 
f 22//22 166//166 167//167 26//26 
f 167//167 166//166 168//168 169//169 
f 167//167 170//170 30//30 26//26 
f 167//167 169//169 171//171 170//170 
f 171//171 169//169 172//172 173//173 
f 171//171 174//174 175//175 170//170 
f 171//171 173//173 176//176 174//174 
f 173//173 177//177 178//178 176//176 
f 178//178 177//177 179//179 180//180 
f 178//178 181//181 182//182 176//176 
f 178//178 180//180 183//183 181//181 
f 183//183 180//180 184//184 185//185 
f 183//183 186//186 187//187 181//181 
f 183//183 185//185 188//188 186//186 
f 188//188 189//189 190//190 186//186 
f 189//189 188//188 191//191 192//192 
f 189//189 193//193 194//194 190//190 
f 189//189 192//192 195//195 193//193 
f 195//195 192//192 196//196 197//197 
f 195//195 198//198 199//199 193//193 
f 195//195 197//197 200//200 198//198 
f 197//197 201//201 202//202 200//200 
f 202//202 201//201 203//203 204//204 
f 202//202 205//205 206//206 200//200 
f 202//202 204//204 207//207 205//205 
f 207//207 204//204 208//208 209//209 
f 207//207 210//210 211//211 205//205 
f 207//207 209//209 212//212 210//210 
f 212//212 209//209 213//213 214//214 
f 212//212 215//215 216//216 210//210 
f 212//212 214//214 217//217 215//215 
f 217//217 80//80 79//79 215//215 
f 79//79 81//81 216//216 215//215 
f 81//81 83//83 218//218 216//216 
f 83//83 85//85 219//219 218//218 
f 85//85 87//87 220//220 219//219 
f 87//87 89//89 221//221 220//220 
f 89//89 91//91 222//222 221//221 
f 91//91 93//93 223//223 222//222 
f 93//93 17//17 163//163 223//223 
f 223//223 224//224 225//225 222//222 
f 223//223 163//163 159//159 224//224 
f 224//224 226//226 227//227 225//225 
f 224//224 159//159 158//158 226//226 
f 226//226 228//228 229//229 227//227 
f 226//226 158//158 161//161 228//228 
f 228//228 230//230 194//194 229//229 
f 228//228 161//161 231//231 230//230 
f 161//161 160//160 232//232 231//231 
f 160//160 162//162 164//164 232//232 
f 164//164 233//233 234//234 232//232 
f 164//164 21//21 105//105 233//233 
f 105//105 107//107 235//235 233//233 
f 107//107 109//109 236//236 235//235 
f 109//109 110//110 175//175 236//236 
f 110//110 30//30 170//170 175//175 
f 175//175 174//174 237//237 236//236 
f 237//237 174//174 176//176 182//182 
f 237//237 238//238 235//235 236//236 
f 237//237 182//182 239//239 238//238 
f 239//239 182//182 181//181 187//187 
f 239//239 240//240 234//234 238//238 
f 239//239 187//187 241//241 240//240 
f 241//241 187//187 186//186 190//190 
f 241//241 230//230 231//231 240//240 
f 241//241 190//190 194//194 230//230 
f 194//194 193//193 199//199 229//229 
f 199//199 242//242 227//227 229//229 
f 199//199 198//198 243//243 242//242 
f 243//243 198//198 200//200 206//206 
f 243//243 244//244 245//245 242//242 
f 243//243 206//206 246//246 244//244 
f 246//246 206//206 205//205 211//211 
f 246//246 219//219 220//220 244//244 
f 246//246 211//211 218//218 219//219 
f 244//244 220//220 221//221 245//245 
f 245//245 225//225 227//227 242//242 
f 245//245 221//221 222//222 225//225 
f 240//240 231//231 232//232 234//234 
f 238//238 234//234 233//233 235//235 
f 218//218 211//211 210//210 216//216 
f 247//247 208//208 248//248 249//249 
f 247//247 213//213 209//209 208//208 
f 208//208 204//204 203//203 248//248 
f 203//203 156//156 250//250 248//248 
f 203//203 201//201 157//157 156//156 
f 250//250 251//251 252//252 249//249 248//248 
f 250//250 253//253 254//254 251//251 
f 250//250 156//156 155//155 253//253 
f 253//253 255//255 256//256 254//254 
f 253//253 155//155 154//154 255//255 
f 255//255 257//257 258//258 256//256 
f 255//255 154//154 259//259 257//257 
f 259//259 185//185 184//184 257//257 
f 259//259 191//191 188//188 185//185 
f 259//259 154//154 153//153 191//191 
f 184//184 260//260 258//258 257//257 
f 184//184 180//180 179//179 260//260 
f 179//179 147//147 151//151 260//260 
f 179//179 177//177 148//148 147//147 
f 151//151 150//150 261//261 262//262 
f 151//151 262//262 258//258 260//260 
f 258//258 262//262 263//263 256//256 
f 263//263 264//264 254//254 256//256 
f 254//254 264//264 265//265 251//251 
f 251//251 265//265 266//266 252//252 
f 261//261 150//150 267//267 268//268 
f 150//150 149//149 269//269 267//267 
f 269//269 168//168 270//270 267//267 
f 269//269 172//172 169//169 168//168 
f 269//269 149//149 148//148 172//172 
f 168//168 166//166 165//165 270//270 
f 165//165 25//25 145//145 271//271 
f 165//165 271//271 272//272 270//270 
f 272//272 268//268 267//267 270//270 
f 201//201 197//197 196//196 157//157 
f 196//196 153//153 152//152 157//157 
f 196//196 192//192 191//191 153//153 
f 177//177 173//173 172//172 148//148 
f 162//162 160//160 159//159 163//163 
# 253 polygons - 2 triangles

