# 3ds Max Wavefront OBJ Exporter v0.97b - (c)2007 guruware
# File Created: 07.02.2018 16:57:24

mtllib capelli_04.mtl

#
# object Group59479
#

v  0.0496 1.0488 -0.3207
v  0.0926 1.1686 -0.2576
v  0.0000 1.1694 -0.2504
v  0.0000 1.0193 -0.3316
v  0.0000 0.9981 -0.3465
v  0.0690 1.0331 -0.3340
v  0.1755 1.1594 -0.2831
v  0.1338 1.6686 0.2443
v  0.1014 1.6789 0.2605
v  0.1081 1.6158 0.2291
v  0.1479 1.6205 0.2199
v  0.1745 1.6639 0.2209
v  0.1473 1.6926 0.2522
v  0.3069 1.7327 0.0556
v  0.2919 1.7847 0.0243
v  0.2621 1.7328 0.1384
v  0.3149 1.6865 0.1146
v  0.3610 1.6508 0.0502
v  0.3282 1.7352 -0.0291
v  0.0322 1.1766 -0.4971
v  0.0612 1.3166 -0.5029
v  0.1129 1.3120 -0.5148
v  0.0452 1.1602 -0.5013
v  0.0000 1.1227 -0.4996
v  0.0000 1.1518 -0.4922
v  0.0000 1.3186 -0.4955
v  0.0000 1.6354 0.2575
v  0.0566 1.6221 0.2425
v  0.0532 1.6954 0.2816
v  0.0000 1.7116 0.3023
v  0.0529 1.7506 0.3084
v  0.0000 1.7549 0.3261
v  0.0572 1.7860 0.3075
v  0.0000 1.7931 0.3282
v  0.0602 1.8825 0.2390
v  0.0000 1.8938 0.2424
v  0.0643 1.9304 0.1555
v  0.0000 1.9384 0.1551
v  0.0966 1.9626 -0.0482
v  0.0000 1.9609 -0.0498
v  0.1020 1.9455 -0.1510
v  0.0000 1.9358 -0.1407
v  0.0868 1.9095 -0.2381
v  0.0000 1.8947 -0.2202
v  0.0660 1.7523 -0.3706
v  0.0000 1.7558 -0.3720
v  0.0774 1.6338 -0.4233
v  0.0000 1.6400 -0.4338
v  0.0689 1.4167 -0.4950
v  0.0000 1.4187 -0.4974
v  0.1295 1.4150 -0.5016
v  0.1753 1.4073 -0.4960
v  0.1561 1.3043 -0.5126
v  0.0592 1.1373 -0.5046
v  0.1959 1.2868 -0.4973
v  0.0710 1.0998 -0.4989
v  0.0000 1.0785 -0.5006
v  0.0000 1.0997 -0.5054
v  0.2283 1.2558 -0.4773
v  0.0824 1.0743 -0.4895
v  0.0000 1.0532 -0.4917
v  0.0919 1.0449 -0.4696
v  0.0000 1.0212 -0.4794
v  0.1020 1.0102 -0.4394
v  0.0000 0.9767 -0.4468
v  0.1027 1.0016 -0.4220
v  0.0000 0.9667 -0.4287
v  0.0999 0.9963 -0.3888
v  0.0000 0.9627 -0.3925
v  0.0955 0.9997 -0.3736
v  0.0000 0.9686 -0.3762
v  0.0887 1.0070 -0.3604
v  0.0000 0.9798 -0.3618
v  0.2448 1.1464 -0.3242
v  0.2214 1.1515 -0.3071
v  0.2519 1.2540 -0.1092
v  0.1878 1.2522 -0.0825
v  0.1027 1.2575 -0.0664
v  0.0000 1.2640 -0.0668
v  0.1740 1.5761 0.1950
v  0.2113 1.5165 0.1665
v  0.2487 1.5653 0.1686
v  0.2093 1.6286 0.1991
v  0.2732 1.5929 0.1625
v  0.2300 1.6557 0.1943
v  0.1923 1.6926 0.2206
v  0.2195 1.7591 0.1965
v  0.1830 1.8157 0.2203
v  0.1614 1.7266 0.2574
v  0.2553 1.7044 0.1704
v  0.3091 1.6524 0.1406
v  0.3528 1.5986 0.0789
v  0.3155 1.5246 0.1196
v  0.3568 1.4799 0.0709
v  0.3861 1.5702 0.0086
v  0.3919 1.4081 -0.0809
v  0.3982 1.4910 -0.1278
v  0.2859 1.4955 0.1286
v  0.3195 1.4508 0.0833
v  0.3606 1.3828 -0.0722
v  0.2673 1.4075 0.0833
v  0.3103 1.3472 -0.0664
v  0.2889 1.3322 -0.1473
v  0.3358 1.3421 -0.1595
v  0.2875 1.2322 -0.2776
v  0.3057 1.2354 -0.2933
v  0.3634 1.3608 -0.1731
v  0.3204 1.2534 -0.3298
v  0.3832 1.4248 -0.2056
v  0.3916 1.5541 -0.1815
v  0.3890 1.6272 -0.0316
v  0.3335 1.6187 -0.2549
v  0.3521 1.7302 -0.1178
v  0.2852 1.6490 -0.2933
v  0.3244 1.7823 -0.1605
v  0.3145 1.7901 -0.0660
v  0.2807 1.8205 -0.1933
v  0.2827 1.8470 -0.1076
v  0.2686 1.8480 0.0008
v  0.2149 1.8954 -0.1309
v  0.2166 1.9028 -0.0209
v  0.1913 1.8553 0.1592
v  0.2374 1.7958 0.1563
v  0.1272 1.8968 0.1552
v  0.1176 1.8498 0.2288
v  0.1159 1.7605 0.2859
v  0.1076 1.7192 0.2819
v  0.1547 1.9459 -0.0377
v  0.1535 1.9345 -0.1465
v  0.1375 1.8987 -0.2390
v  0.2079 1.8617 -0.2186
v  0.2054 1.7172 -0.3440
v  0.1376 1.7374 -0.3570
v  0.2532 1.6876 -0.3259
v  0.2810 1.5610 -0.3341
v  0.2427 1.5947 -0.3756
v  0.3353 1.5235 -0.3018
v  0.2881 1.3371 -0.4162
v  0.2609 1.3722 -0.4417
v  0.3808 1.4673 -0.2432
v  0.3192 1.2710 -0.3517
v  0.2720 1.1730 -0.4044
v  0.2537 1.2245 -0.4525
v  0.2722 1.1606 -0.3824
v  0.2588 1.1457 -0.3415
v  0.2186 1.3948 -0.4746
v  0.2037 1.6152 -0.4018
v  0.1533 1.6260 -0.4125
v  0.2405 1.4496 0.1285
v  -0.0496 1.0488 -0.3207
v  -0.0926 1.1686 -0.2576
v  -0.0690 1.0331 -0.3340
v  -0.1755 1.1594 -0.2831
v  -0.1338 1.6686 0.2443
v  -0.1479 1.6205 0.2199
v  -0.1081 1.6158 0.2291
v  -0.1014 1.6789 0.2605
v  -0.1473 1.6926 0.2522
v  -0.1745 1.6639 0.2209
v  -0.3069 1.7327 0.0556
v  -0.3149 1.6865 0.1146
v  -0.2621 1.7328 0.1384
v  -0.2919 1.7847 0.0243
v  -0.3282 1.7352 -0.0291
v  -0.3610 1.6508 0.0502
v  -0.0322 1.1766 -0.4971
v  -0.0452 1.1602 -0.5013
v  -0.1129 1.3120 -0.5148
v  -0.0612 1.3166 -0.5029
v  -0.0532 1.6954 0.2816
v  -0.0566 1.6221 0.2425
v  -0.0529 1.7506 0.3084
v  -0.0572 1.7860 0.3075
v  -0.0602 1.8825 0.2390
v  -0.0643 1.9304 0.1555
v  -0.0966 1.9626 -0.0482
v  -0.1020 1.9455 -0.1510
v  -0.0868 1.9095 -0.2381
v  -0.0660 1.7523 -0.3706
v  -0.0774 1.6338 -0.4233
v  -0.0689 1.4167 -0.4950
v  -0.1295 1.4150 -0.5016
v  -0.1561 1.3043 -0.5126
v  -0.1753 1.4073 -0.4960
v  -0.0592 1.1373 -0.5046
v  -0.0710 1.0998 -0.4989
v  -0.1959 1.2868 -0.4973
v  -0.0824 1.0743 -0.4895
v  -0.2283 1.2558 -0.4773
v  -0.0919 1.0449 -0.4696
v  -0.1020 1.0102 -0.4394
v  -0.1027 1.0016 -0.4220
v  -0.0999 0.9963 -0.3888
v  -0.0955 0.9997 -0.3736
v  -0.0887 1.0070 -0.3604
v  -0.2214 1.1515 -0.3071
v  -0.2448 1.1464 -0.3242
v  -0.1878 1.2522 -0.0825
v  -0.2519 1.2540 -0.1092
v  -0.1027 1.2575 -0.0664
v  -0.1740 1.5761 0.1950
v  -0.2093 1.6286 0.1991
v  -0.2487 1.5653 0.1686
v  -0.2113 1.5165 0.1665
v  -0.2300 1.6557 0.1943
v  -0.2732 1.5929 0.1625
v  -0.1923 1.6926 0.2206
v  -0.1614 1.7266 0.2574
v  -0.1830 1.8157 0.2203
v  -0.2195 1.7591 0.1965
v  -0.2553 1.7044 0.1704
v  -0.3091 1.6524 0.1406
v  -0.3528 1.5986 0.0789
v  -0.3155 1.5246 0.1196
v  -0.3861 1.5702 0.0086
v  -0.3568 1.4799 0.0709
v  -0.3982 1.4910 -0.1278
v  -0.3919 1.4081 -0.0809
v  -0.3195 1.4508 0.0833
v  -0.2859 1.4955 0.1286
v  -0.3606 1.3828 -0.0722
v  -0.3103 1.3660 -0.0664
v  -0.2673 1.4262 0.0833
v  -0.3358 1.3421 -0.1595
v  -0.2889 1.3322 -0.1473
v  -0.2875 1.2322 -0.2777
v  -0.3634 1.3608 -0.1731
v  -0.3057 1.2354 -0.2933
v  -0.3832 1.4248 -0.2056
v  -0.3204 1.2534 -0.3298
v  -0.3890 1.6272 -0.0316
v  -0.3916 1.5541 -0.1815
v  -0.3521 1.7302 -0.1178
v  -0.3335 1.6187 -0.2549
v  -0.3244 1.7823 -0.1605
v  -0.2852 1.6490 -0.2933
v  -0.3145 1.7901 -0.0660
v  -0.2827 1.8470 -0.1076
v  -0.2807 1.8205 -0.1933
v  -0.2686 1.8480 0.0008
v  -0.2166 1.9028 -0.0209
v  -0.2149 1.8954 -0.1309
v  -0.2374 1.7958 0.1563
v  -0.1913 1.8553 0.1592
v  -0.1176 1.8498 0.2288
v  -0.1272 1.8968 0.1552
v  -0.1159 1.7605 0.2859
v  -0.1076 1.7192 0.2819
v  -0.1547 1.9459 -0.0377
v  -0.1535 1.9345 -0.1465
v  -0.1375 1.8987 -0.2390
v  -0.2079 1.8617 -0.2186
v  -0.1376 1.7374 -0.3570
v  -0.2054 1.7172 -0.3440
v  -0.2532 1.6876 -0.3259
v  -0.2427 1.5947 -0.3756
v  -0.2810 1.5610 -0.3341
v  -0.3353 1.5235 -0.3018
v  -0.2609 1.3722 -0.4417
v  -0.2881 1.3371 -0.4162
v  -0.3808 1.4673 -0.2432
v  -0.3192 1.2710 -0.3517
v  -0.2537 1.2245 -0.4525
v  -0.2720 1.1730 -0.4044
v  -0.2722 1.1606 -0.3824
v  -0.2588 1.1457 -0.3415
v  -0.2186 1.3948 -0.4746
v  -0.2037 1.6152 -0.4018
v  -0.1533 1.6260 -0.4125
v  -0.2405 1.4481 0.1285
# 270 vertices

vn 0.1319 -0.5063 0.8522
vn 0.0779 -0.7484 0.6587
vn -0.0000 -0.7246 0.6891
vn -0.0000 -0.5437 0.8393
vn -0.0000 -0.6162 0.7876
vn 0.2064 -0.5625 0.8006
vn 0.1686 -0.7588 0.6292
vn 0.3407 -0.4169 0.8427
vn 0.2528 -0.4460 0.8586
vn 0.2382 -0.4096 0.8806
vn 0.3627 -0.3067 0.8800
vn 0.4183 -0.2920 0.8601
vn 0.4260 -0.3810 0.8206
vn 0.8045 0.5005 0.3199
vn 0.8422 0.4302 0.3249
vn 0.8231 0.3769 0.4248
vn 0.7651 0.4269 0.4820
vn 0.9011 0.2862 0.3259
vn 0.8673 0.4472 0.2187
vn -0.1938 0.0440 -0.9800
vn -0.1474 0.0367 -0.9884
vn -0.0702 0.0584 -0.9958
vn -0.1785 0.0726 -0.9813
vn 0.0000 0.2320 -0.9727
vn 0.0000 0.1646 -0.9864
vn 0.0000 -0.0179 -0.9998
vn -0.0000 -0.4812 0.8766
vn 0.1523 -0.4593 0.8751
vn 0.1886 -0.4551 0.8702
vn -0.0000 -0.4768 0.8790
vn 0.2865 -0.2188 0.9328
vn -0.0000 -0.2477 0.9688
vn 0.3926 0.2811 0.8757
vn -0.0000 0.2913 0.9566
vn 0.3402 0.7020 0.6256
vn -0.0000 0.7791 0.6269
vn 0.2874 0.8956 0.3397
vn -0.0000 0.9523 0.3053
vn 0.1486 0.9888 0.0114
vn 0.0000 0.9985 -0.0553
vn 0.0807 0.9558 -0.2828
vn 0.0000 0.9419 -0.3360
vn -0.0249 0.7991 -0.6007
vn 0.0000 0.7999 -0.6001
vn 0.1267 0.5504 -0.8252
vn 0.0000 0.5983 -0.8012
vn 0.1608 0.3768 -0.9122
vn 0.0000 0.3893 -0.9211
vn -0.0112 0.2094 -0.9778
vn 0.0000 0.1622 -0.9868
vn 0.0283 0.2560 -0.9663
vn 0.3243 0.2279 -0.9181
vn 0.2204 -0.0048 -0.9754
vn 0.0400 -0.0395 -0.9984
vn 0.4256 -0.0467 -0.9037
vn 0.1843 -0.2010 -0.9621
vn 0.0000 -0.2858 -0.9583
vn 0.0000 -0.0691 -0.9976
vn 0.5429 -0.1079 -0.8329
vn 0.2901 -0.3694 -0.8828
vn 0.0000 -0.3664 -0.9305
vn 0.3775 -0.4890 -0.7864
vn 0.0000 -0.4946 -0.8691
vn 0.4726 -0.6659 -0.5773
vn 0.0000 -0.7649 -0.6441
vn 0.5178 -0.8181 -0.2503
vn 0.0000 -0.9542 -0.2993
vn 0.4984 -0.8605 0.1052
vn -0.0000 -0.9942 0.1078
vn 0.4142 -0.7957 0.4418
vn -0.0000 -0.8839 0.4677
vn 0.3037 -0.6786 0.6688
vn -0.0000 -0.7289 0.6846
vn 0.4992 -0.6355 0.5891
vn 0.3698 -0.6807 0.6324
vn 0.4872 -0.7631 0.4247
vn 0.0962 -0.9057 0.4129
vn -0.0190 -0.9066 0.4216
vn -0.0000 -0.9013 0.4332
vn 0.3081 -0.2653 0.9136
vn 0.3447 -0.3026 0.8886
vn 0.3837 -0.2486 0.8893
vn 0.3597 -0.2204 0.9066
vn 0.5254 -0.1215 0.8421
vn 0.5413 -0.0509 0.8393
vn 0.5846 -0.1128 0.8034
vn 0.7023 0.1458 0.6968
vn 0.6021 0.4439 0.6637
vn 0.5965 -0.0954 0.7969
vn 0.7055 0.1918 0.6823
vn 0.7067 0.1302 0.6954
vn 0.8725 -0.0116 0.4884
vn 0.6603 -0.1675 0.7321
vn 0.8018 -0.2674 0.5344
vn 0.9614 0.0069 0.2750
vn 0.9047 -0.3904 0.1707
vn 0.9994 -0.0350 -0.0031
vn 0.4490 -0.3401 0.8263
vn 0.5555 -0.5452 0.6278
vn 0.6137 -0.7199 0.3241
vn 0.5095 -0.6185 0.5982
vn 0.5241 -0.7933 0.3098
vn 0.2948 -0.2618 0.9190
vn 0.6059 -0.7199 0.3385
vn 0.6278 -0.6619 0.4095
vn 0.7643 -0.5733 0.2953
vn 0.8521 -0.5173 0.0795
vn 0.9280 -0.3649 -0.0758
vn 0.9733 -0.2064 -0.1001
vn 0.9560 0.1714 -0.2379
vn 0.9701 0.2172 0.1078
vn 0.7809 0.3626 -0.5087
vn 0.9226 0.3731 -0.0978
vn 0.7793 0.2909 -0.5550
vn 0.8375 0.4899 -0.2420
vn 0.8729 0.4713 0.1264
vn 0.6725 0.6148 -0.4120
vn 0.7512 0.6551 -0.0807
vn 0.7735 0.5974 0.2115
vn 0.6026 0.7754 -0.1887
vn 0.6254 0.7726 0.1098
vn 0.5982 0.6911 0.4057
vn 0.8226 0.3818 0.4213
vn 0.4485 0.8038 0.3908
vn 0.4312 0.6238 0.6519
vn 0.4663 0.1342 0.8744
vn 0.3457 -0.3211 0.8817
vn 0.4042 0.9106 0.0866
vn 0.3925 0.8864 -0.2455
vn 0.3177 0.7312 -0.6037
vn 0.5347 0.6653 -0.5211
vn 0.4344 0.5165 -0.7379
vn 0.2819 0.5255 -0.8027
vn 0.6882 0.3663 -0.6262
vn 0.7204 0.2723 -0.6379
vn 0.7135 0.2554 -0.6524
vn 0.7743 0.2277 -0.5905
vn 0.8175 0.0308 -0.5751
vn 0.7016 0.1409 -0.6985
vn 0.9309 0.0233 -0.3645
vn 0.9173 -0.1498 -0.3688
vn 0.7844 -0.4099 -0.4655
vn 0.6822 -0.2202 -0.6972
vn 0.8153 -0.5604 -0.1456
vn 0.7099 -0.6594 0.2472
vn 0.5663 0.1829 -0.8037
vn 0.4559 0.3578 -0.8150
vn 0.2142 0.4002 -0.8910
vn 0.4051 -0.4202 0.8120
vn -0.1319 -0.5063 0.8522
vn -0.0779 -0.7484 0.6587
vn -0.2064 -0.5625 0.8006
vn -0.1686 -0.7588 0.6292
vn -0.3407 -0.4169 0.8427
vn -0.3627 -0.3067 0.8800
vn -0.2382 -0.4096 0.8806
vn -0.2528 -0.4460 0.8586
vn -0.4260 -0.3810 0.8206
vn -0.4183 -0.2920 0.8601
vn -0.8045 0.5005 0.3199
vn -0.7651 0.4269 0.4820
vn -0.8231 0.3769 0.4248
vn -0.8422 0.4302 0.3249
vn -0.8673 0.4472 0.2187
vn -0.9011 0.2862 0.3259
vn 0.1938 0.0440 -0.9800
vn 0.1785 0.0726 -0.9813
vn 0.0702 0.0584 -0.9958
vn 0.1474 0.0367 -0.9884
vn -0.1886 -0.4551 0.8702
vn -0.1523 -0.4593 0.8751
vn -0.2865 -0.2188 0.9328
vn -0.3926 0.2811 0.8757
vn -0.3402 0.7020 0.6256
vn -0.2874 0.8956 0.3397
vn -0.1486 0.9888 0.0114
vn -0.0807 0.9558 -0.2828
vn 0.0249 0.7991 -0.6007
vn -0.1267 0.5504 -0.8252
vn -0.1608 0.3768 -0.9122
vn 0.0112 0.2094 -0.9778
vn -0.0283 0.2560 -0.9663
vn -0.2204 -0.0048 -0.9754
vn -0.3243 0.2279 -0.9181
vn -0.0400 -0.0395 -0.9984
vn -0.1843 -0.2010 -0.9621
vn -0.4256 -0.0467 -0.9037
vn -0.2901 -0.3694 -0.8828
vn -0.5429 -0.1079 -0.8329
vn -0.3775 -0.4890 -0.7864
vn -0.4726 -0.6659 -0.5773
vn -0.5178 -0.8181 -0.2503
vn -0.4984 -0.8605 0.1052
vn -0.4142 -0.7957 0.4418
vn -0.3037 -0.6786 0.6688
vn -0.3698 -0.6807 0.6324
vn -0.4992 -0.6355 0.5891
vn -0.0962 -0.9057 0.4129
vn -0.4872 -0.7631 0.4247
vn 0.0190 -0.9066 0.4216
vn -0.3081 -0.2653 0.9136
vn -0.3597 -0.2204 0.9066
vn -0.3838 -0.2479 0.8895
vn -0.3419 -0.3005 0.8904
vn -0.5413 -0.0509 0.8393
vn -0.5254 -0.1215 0.8421
vn -0.5846 -0.1128 0.8034
vn -0.5965 -0.0954 0.7969
vn -0.6021 0.4439 0.6637
vn -0.7023 0.1458 0.6968
vn -0.7055 0.1918 0.6823
vn -0.7067 0.1302 0.6954
vn -0.8725 -0.0116 0.4884
vn -0.6603 -0.1675 0.7321
vn -0.9614 0.0069 0.2750
vn -0.8018 -0.2674 0.5344
vn -0.9994 -0.0350 -0.0031
vn -0.9047 -0.3904 0.1707
vn -0.5061 -0.6098 0.6099
vn -0.4523 -0.3369 0.8257
vn -0.5203 -0.7806 0.3464
vn -0.3235 -0.8690 0.3744
vn -0.3611 -0.7761 0.5170
vn -0.5846 -0.7158 0.3820
vn -0.2854 -0.1936 0.9386
vn -0.6278 -0.6619 0.4095
vn -0.8521 -0.5173 0.0795
vn -0.7643 -0.5733 0.2953
vn -0.9733 -0.2064 -0.1001
vn -0.9280 -0.3649 -0.0758
vn -0.9701 0.2172 0.1078
vn -0.9560 0.1714 -0.2379
vn -0.9226 0.3731 -0.0978
vn -0.7809 0.3626 -0.5087
vn -0.8375 0.4899 -0.2420
vn -0.7793 0.2909 -0.5550
vn -0.8729 0.4713 0.1264
vn -0.7512 0.6551 -0.0807
vn -0.6725 0.6148 -0.4120
vn -0.7735 0.5974 0.2115
vn -0.6254 0.7726 0.1098
vn -0.6026 0.7754 -0.1887
vn -0.8226 0.3818 0.4213
vn -0.5982 0.6911 0.4057
vn -0.4312 0.6238 0.6519
vn -0.4485 0.8038 0.3908
vn -0.4663 0.1342 0.8744
vn -0.3457 -0.3211 0.8817
vn -0.4042 0.9106 0.0866
vn -0.3925 0.8864 -0.2455
vn -0.3177 0.7312 -0.6037
vn -0.5347 0.6653 -0.5211
vn -0.2819 0.5255 -0.8027
vn -0.4344 0.5165 -0.7379
vn -0.6882 0.3663 -0.6262
vn -0.7135 0.2554 -0.6525
vn -0.7204 0.2723 -0.6379
vn -0.7743 0.2277 -0.5905
vn -0.7016 0.1409 -0.6985
vn -0.8175 0.0308 -0.5751
vn -0.9309 0.0233 -0.3645
vn -0.9173 -0.1498 -0.3688
vn -0.6822 -0.2202 -0.6972
vn -0.7844 -0.4099 -0.4655
vn -0.8153 -0.5604 -0.1456
vn -0.7099 -0.6594 0.2472
vn -0.5663 0.1829 -0.8037
vn -0.4559 0.3578 -0.8150
vn -0.2142 0.4002 -0.8910
vn -0.3948 -0.4718 0.7884
# 270 vertex normals

g Group59479
usemtl default
s 1
f 1//1 2//2 3//3 4//4 
f 1//1 4//4 5//5 6//6 
f 1//1 6//6 7//7 2//2 
f 8//8 9//9 10//10 11//11 
f 8//8 11//11 12//12 13//13 
f 14//14 15//15 16//16 17//17 
f 14//14 17//17 18//18 19//19 
f 20//20 21//21 22//22 23//23 
f 20//20 23//23 24//24 25//25 
f 20//20 25//25 26//26 21//21 
f 27//27 28//28 29//29 30//30 
f 30//30 29//29 31//31 32//32 
f 32//32 31//31 33//33 34//34 
f 34//34 33//33 35//35 36//36 
f 36//36 35//35 37//37 38//38 
f 38//38 37//37 39//39 40//40 
f 40//40 39//39 41//41 42//42 
f 42//42 41//41 43//43 44//44 
f 44//44 43//43 45//45 46//46 
f 46//46 45//45 47//47 48//48 
f 48//48 47//47 49//49 50//50 
f 50//50 49//49 21//21 26//26 
f 21//21 49//49 51//51 22//22 
f 22//22 51//51 52//52 53//53 
f 22//22 53//53 54//54 23//23 
f 53//53 55//55 56//56 54//54 
f 56//56 57//57 58//58 54//54 
f 56//56 55//55 59//59 60//60 
f 56//56 60//60 61//61 57//57 
f 61//61 60//60 62//62 63//63 
f 63//63 62//62 64//64 65//65 
f 65//65 64//64 66//66 67//67 
f 67//67 66//66 68//68 69//69 
f 69//69 68//68 70//70 71//71 
f 71//71 70//70 72//72 73//73 
f 73//73 72//72 6//6 5//5 
f 72//72 70//70 74//74 75//75 
f 72//72 75//75 7//7 6//6 
f 7//7 75//75 76//76 77//77 
f 7//7 77//77 78//78 2//2 
f 2//2 78//78 79//79 3//3 
f 80//80 81//81 82//82 83//83 
f 80//80 83//83 12//12 11//11 
f 83//83 82//82 84//84 85//85 
f 83//83 85//85 86//86 12//12 
f 86//86 87//87 88//88 89//89 
f 86//86 89//89 13//13 12//12 
f 86//86 85//85 90//90 87//87 
f 85//85 84//84 91//91 90//90 
f 91//91 92//92 18//18 17//17 
f 91//91 17//17 16//16 90//90 
f 91//91 84//84 93//93 92//92 
f 93//93 94//94 95//95 92//92 
f 94//94 96//96 97//97 95//95 
f 94//94 93//93 98//98 99//99 
f 94//94 99//99 100//100 96//96 
f 99//99 101//101 102//102 100//100 
f 102//102 103//103 104//104 100//100 
f 76//76 105//105 104//104 103//103 
f 105//105 106//106 107//107 104//104 
f 107//107 106//106 108//108 109//109 
f 107//107 109//109 97//97 96//96 
f 107//107 96//96 100//100 104//104 
f 97//97 110//110 111//111 95//95 
f 111//111 110//110 112//112 113//113 
f 111//111 113//113 19//19 18//18 
f 111//111 18//18 92//92 95//95 
f 113//113 112//112 114//114 115//115 
f 113//113 115//115 116//116 19//19 
f 116//116 115//115 117//117 118//118 
f 116//116 118//118 119//119 15//15 
f 116//116 15//15 14//14 19//19 
f 119//119 118//118 120//120 121//121 
f 119//119 121//121 122//122 123//123 
f 119//119 123//123 16//16 15//15 
f 123//123 122//122 88//88 87//87 
f 123//123 87//87 90//90 16//16 
f 88//88 122//122 124//124 125//125 
f 88//88 125//125 126//126 89//89 
f 125//125 35//35 33//33 126//126 
f 126//126 33//33 31//31 127//127 
f 126//126 127//127 13//13 89//89 
f 127//127 31//31 29//29 9//9 
f 127//127 9//9 8//8 13//13 
f 125//125 124//124 37//37 35//35 
f 124//124 128//128 39//39 37//37 
f 124//124 122//122 121//121 128//128 
f 128//128 129//129 41//41 39//39 
f 128//128 121//121 120//120 129//129 
f 129//129 130//130 43//43 41//41 
f 129//129 120//120 131//131 130//130 
f 131//131 132//132 133//133 130//130 
f 131//131 120//120 118//118 117//117 
f 131//131 117//117 134//134 132//132 
f 117//117 115//115 114//114 134//134 
f 114//114 135//135 136//136 134//134 
f 114//114 112//112 137//137 135//135 
f 137//137 138//138 139//139 135//135 
f 137//137 112//112 110//110 140//140 
f 137//137 140//140 141//141 138//138 
f 141//141 142//142 143//143 138//138 
f 141//141 140//140 109//109 108//108 
f 141//141 108//108 144//144 142//142 
f 144//144 66//66 64//64 142//142 
f 144//144 108//108 106//106 145//145 
f 144//144 145//145 68//68 66//66 
f 145//145 74//74 70//70 68//68 
f 145//145 106//106 105//105 74//74 
f 64//64 62//62 143//143 142//142 
f 143//143 62//62 60//60 59//59 
f 143//143 59//59 139//139 138//138 
f 139//139 59//59 55//55 146//146 
f 139//139 146//146 136//136 135//135 
f 146//146 52//52 147//147 136//136 
f 147//147 52//52 51//51 148//148 
f 147//147 148//148 133//133 132//132 
f 147//147 132//132 134//134 136//136 
f 133//133 148//148 47//47 45//45 
f 133//133 45//45 43//43 130//130 
f 148//148 51//51 49//49 47//47 
f 146//146 55//55 53//53 52//52 
f 140//140 110//110 97//97 109//109 
f 105//105 76//76 75//75 74//74 
f 149//149 101//101 99//99 98//98 
f 149//149 98//98 82//82 81//81 
f 98//98 93//93 84//84 82//82 
f 58//58 24//24 23//23 54//54 
f 29//29 28//28 10//10 9//9 
f 150//150 4//4 3//3 151//151 
f 150//150 152//152 5//5 4//4 
f 150//150 151//151 153//153 152//152 
f 154//154 155//155 156//156 157//157 
f 154//154 158//158 159//159 155//155 
f 160//160 161//161 162//162 163//163 
f 160//160 164//164 165//165 161//161 
f 166//166 167//167 168//168 169//169 
f 166//166 25//25 24//24 167//167 
f 166//166 169//169 26//26 25//25 
f 27//27 30//30 170//170 171//171 
f 30//30 32//32 172//172 170//170 
f 32//32 34//34 173//173 172//172 
f 34//34 36//36 174//174 173//173 
f 36//36 38//38 175//175 174//174 
f 38//38 40//40 176//176 175//175 
f 40//40 42//42 177//177 176//176 
f 42//42 44//44 178//178 177//177 
f 44//44 46//46 179//179 178//178 
f 46//46 48//48 180//180 179//179 
f 48//48 50//50 181//181 180//180 
f 50//50 26//26 169//169 181//181 
f 169//169 168//168 182//182 181//181 
f 168//168 183//183 184//184 182//182 
f 168//168 167//167 185//185 183//183 
f 185//185 186//186 187//187 183//183 
f 186//186 185//185 58//58 57//57 
f 186//186 188//188 189//189 187//187 
f 186//186 57//57 61//61 188//188 
f 61//61 63//63 190//190 188//188 
f 63//63 65//65 191//191 190//190 
f 65//65 67//67 192//192 191//191 
f 67//67 69//69 193//193 192//192 
f 69//69 71//71 194//194 193//193 
f 71//71 73//73 195//195 194//194 
f 73//73 5//5 152//152 195//195 
f 195//195 196//196 197//197 194//194 
f 195//195 152//152 153//153 196//196 
f 153//153 198//198 199//199 196//196 
f 153//153 151//151 200//200 198//198 
f 151//151 3//3 79//79 200//200 
f 201//201 202//202 203//203 204//204 
f 201//201 155//155 159//159 202//202 
f 202//202 205//205 206//206 203//203 
f 202//202 159//159 207//207 205//205 
f 207//207 208//208 209//209 210//210 
f 207//207 159//159 158//158 208//208 
f 207//207 210//210 211//211 205//205 
f 211//211 212//212 206//206 205//205 
f 212//212 161//161 165//165 213//213 
f 212//212 211//211 162//162 161//161 
f 212//212 213//213 214//214 206//206 
f 213//213 215//215 216//216 214//214 
f 216//216 215//215 217//217 218//218 
f 216//216 219//219 220//220 214//214 
f 216//216 218//218 221//221 219//219 
f 221//221 222//222 223//223 219//219 
f 222//222 221//221 224//224 225//225 
f 225//225 224//224 226//226 199//199 
f 224//224 227//227 228//228 226//226 
f 227//227 229//229 230//230 228//228 
f 227//227 218//218 217//217 229//229 
f 227//227 224//224 221//221 218//218 
f 215//215 231//231 232//232 217//217 
f 231//231 233//233 234//234 232//232 
f 231//231 165//165 164//164 233//233 
f 231//231 215//215 213//213 165//165 
f 233//233 235//235 236//236 234//234 
f 233//233 164//164 237//237 235//235 
f 237//237 238//238 239//239 235//235 
f 237//237 163//163 240//240 238//238 
f 237//237 164//164 160//160 163//163 
f 240//240 241//241 242//242 238//238 
f 240//240 243//243 244//244 241//241 
f 240//240 163//163 162//162 243//243 
f 243//243 210//210 209//209 244//244 
f 243//243 162//162 211//211 210//210 
f 209//209 245//245 246//246 244//244 
f 209//209 208//208 247//247 245//245 
f 247//247 173//173 174//174 245//245 
f 247//247 248//248 172//172 173//173 
f 247//247 208//208 158//158 248//248 
f 248//248 157//157 170//170 172//172 
f 248//248 158//158 154//154 157//157 
f 245//245 174//174 175//175 246//246 
f 246//246 175//175 176//176 249//249 
f 246//246 249//249 241//241 244//244 
f 249//249 176//176 177//177 250//250 
f 249//249 250//250 242//242 241//241 
f 250//250 177//177 178//178 251//251 
f 250//250 251//251 252//252 242//242 
f 252//252 251//251 253//253 254//254 
f 252//252 239//239 238//238 242//242 
f 252//252 254//254 255//255 239//239 
f 255//255 236//236 235//235 239//239 
f 236//236 255//255 256//256 257//257 
f 236//236 257//257 258//258 234//234 
f 258//258 257//257 259//259 260//260 
f 258//258 261//261 232//232 234//234 
f 258//258 260//260 262//262 261//261 
f 262//262 260//260 263//263 264//264 
f 262//262 230//230 229//229 261//261 
f 262//262 264//264 265//265 230//230 
f 265//265 264//264 191//191 192//192 
f 265//265 266//266 228//228 230//230 
f 265//265 192//192 193//193 266//266 
f 193//193 194//194 197//197 266//266 
f 266//266 197//197 226//226 228//228 
f 264//264 263//263 190//190 191//191 
f 263//263 189//189 188//188 190//190 
f 263//263 260//260 259//259 189//189 
f 259//259 267//267 187//187 189//189 
f 259//259 257//257 256//256 267//267 
f 256//256 268//268 184//184 267//267 
f 268//268 269//269 182//182 184//184 
f 268//268 254//254 253//253 269//269 
f 268//268 256//256 255//255 254//254 
f 253//253 179//179 180//180 269//269 
f 253//253 251//251 178//178 179//179 
f 269//269 180//180 181//181 182//182 
f 267//267 184//184 183//183 187//187 
f 261//261 229//229 217//217 232//232 
f 226//226 197//197 196//196 199//199 
f 270//270 220//220 219//219 223//223 
f 270//270 204//204 203//203 220//220 
f 220//220 203//203 206//206 214//214 
f 58//58 185//185 167//167 24//24 
f 170//170 157//157 156//156 171//171 
# 256 polygons

