# 3ds Max Wavefront OBJ Exporter v0.97b - (c)2007 guruware
# File Created: 07.02.2018 16:56:49

mtllib capelli_02.mtl

#
# object Group15399
#

v  0.2275 1.7077 -0.3326
v  0.2506 1.6722 -0.3468
v  0.1959 1.6701 -0.3855
v  0.1842 1.7168 -0.3478
v  0.1805 1.7458 -0.2888
v  0.2396 1.7225 -0.2864
v  0.2842 1.6846 -0.2881
v  0.2205 1.2663 -0.1696
v  0.2352 1.2750 -0.1285
v  0.1820 1.2447 -0.1209
v  0.1811 1.2472 -0.1873
v  0.2625 1.6336 0.1338
v  0.2278 1.6519 0.1343
v  0.2164 1.6359 0.1671
v  0.2676 1.6135 0.1559
v  0.2111 1.4103 0.1528
v  0.1669 1.4096 0.1614
v  0.1721 1.3626 0.1229
v  0.1857 1.3212 0.0739
v  0.2613 1.3549 0.0745
v  0.3109 1.4171 0.0692
v  0.2421 1.4506 0.1665
v  0.1855 1.4722 0.1913
v  0.0000 1.7123 -0.3767
v  0.0000 1.7607 -0.2903
v  0.1226 1.7553 -0.2914
v  0.1276 1.7205 -0.3608
v  0.1396 1.6673 -0.4040
v  0.0000 1.6604 -0.4200
v  0.0000 1.2003 -0.1498
v  0.0000 1.2102 -0.2424
v  0.1321 1.2279 -0.2117
v  0.1253 1.2234 -0.1346
v  0.1170 1.3131 0.0783
v  0.1250 1.2579 -0.0134
v  0.1976 1.2748 -0.0161
v  0.1078 1.4095 0.1663
v  0.1172 1.4783 0.1982
v  0.1292 1.5404 0.2070
v  0.2020 1.5200 0.1999
v  0.2111 1.6104 0.1859
v  0.1438 1.6515 0.1773
v  0.1592 1.6711 0.1511
v  0.1780 1.6771 0.1152
v  0.3099 1.6691 0.0018
v  0.2452 1.6907 -0.0037
v  0.1567 1.7359 -0.0117
v  0.1352 1.7101 0.0958
v  0.2487 1.7248 -0.1453
v  0.1705 1.7554 -0.1272
v  -0.0000 1.7923 -0.1128
v  0.1080 1.7765 -0.1128
v  0.3049 1.6923 -0.1596
v  0.3460 1.6478 0.0045
v  0.3402 1.6478 -0.1659
v  0.3699 1.6179 0.0085
v  0.3647 1.6011 -0.1602
v  0.2769 1.5887 0.1580
v  0.3810 1.5819 0.0155
v  0.2812 1.5019 0.1590
v  0.3527 1.4723 0.0476
v  0.3525 1.4315 -0.1256
v  0.3791 1.5498 -0.1551
v  0.3238 1.5036 -0.2898
v  0.3244 1.5607 -0.2957
v  0.3130 1.6265 -0.2921
v  0.2935 1.5489 -0.3510
v  0.2750 1.6152 -0.3566
v  0.2076 1.5368 -0.4182
v  0.2015 1.6050 -0.4123
v  0.1617 1.5331 -0.4426
v  0.1550 1.6016 -0.4329
v  0.0000 1.5937 -0.4532
v  0.0000 1.5217 -0.4673
v  0.1626 1.4563 -0.4333
v  0.0000 1.4482 -0.4634
v  0.1537 1.3142 -0.3642
v  0.0000 1.3023 -0.4014
v  0.1404 1.2565 -0.2971
v  0.0000 1.2427 -0.3301
v  0.1922 1.2776 -0.2596
v  0.1942 1.3304 -0.3331
v  0.2711 1.3523 -0.2789
v  0.2476 1.2964 -0.2200
v  0.3062 1.3743 -0.2323
v  0.2831 1.3232 -0.1767
v  0.3098 1.3772 -0.0815
v  0.2692 1.3134 -0.0328
v  0.3000 1.4844 -0.3337
v  0.2050 1.4624 -0.4052
v  -0.2275 1.7077 -0.3326
v  -0.1842 1.7168 -0.3478
v  -0.1959 1.6701 -0.3855
v  -0.2506 1.6722 -0.3468
v  -0.2396 1.7225 -0.2864
v  -0.1805 1.7458 -0.2888
v  -0.2842 1.6846 -0.2881
v  -0.2205 1.2663 -0.1696
v  -0.1811 1.2472 -0.1873
v  -0.1820 1.2447 -0.1209
v  -0.2352 1.2750 -0.1285
v  -0.2625 1.6336 0.1338
v  -0.2676 1.6135 0.1559
v  -0.2164 1.6359 0.1671
v  -0.2278 1.6519 0.1343
v  -0.2111 1.4103 0.1528
v  -0.2324 1.3831 0.1236
v  -0.1721 1.3626 0.1229
v  -0.1669 1.4096 0.1614
v  -0.2421 1.4506 0.1665
v  -0.2886 1.4292 0.1251
v  -0.1855 1.4722 0.1913
v  -0.1276 1.7205 -0.3608
v  -0.1226 1.7553 -0.2914
v  -0.1396 1.6673 -0.4040
v  -0.1253 1.2234 -0.1346
v  -0.1321 1.2279 -0.2117
v  -0.1170 1.3131 0.0783
v  -0.1857 1.3212 0.0739
v  -0.1976 1.2748 -0.0161
v  -0.1250 1.2579 -0.0134
v  -0.1078 1.4095 0.1663
v  -0.1172 1.4783 0.1982
v  -0.1438 1.6515 0.1773
v  -0.2111 1.6104 0.1859
v  -0.2020 1.5200 0.1999
v  -0.1292 1.5404 0.2070
v  -0.1592 1.6711 0.1511
v  -0.1780 1.6771 0.1152
v  -0.2031 1.6832 0.0602
v  -0.2604 1.6610 0.0756
v  -0.2452 1.6907 -0.0037
v  -0.3099 1.6691 0.0018
v  -0.1385 1.7216 0.0491
v  -0.1567 1.7359 -0.0117
v  -0.1705 1.7554 -0.1272
v  -0.2487 1.7248 -0.1453
v  -0.1080 1.7765 -0.1128
v  -0.3049 1.6923 -0.1596
v  -0.3402 1.6478 -0.1659
v  -0.3460 1.6478 0.0045
v  -0.3647 1.6011 -0.1602
v  -0.3699 1.6179 0.0085
v  -0.2984 1.6411 0.0884
v  -0.3230 1.6174 0.0952
v  -0.3810 1.5819 0.0155
v  -0.3398 1.5835 0.1023
v  -0.2769 1.5887 0.1580
v  -0.3300 1.4872 0.1178
v  -0.2812 1.5019 0.1590
v  -0.3527 1.4723 0.0476
v  -0.3791 1.5498 -0.1551
v  -0.3525 1.4315 -0.1256
v  -0.3244 1.5607 -0.2957
v  -0.3238 1.5036 -0.2898
v  -0.3130 1.6265 -0.2921
v  -0.2750 1.6152 -0.3566
v  -0.2935 1.5489 -0.3510
v  -0.2015 1.6050 -0.4123
v  -0.2076 1.5368 -0.4182
v  -0.1550 1.6016 -0.4329
v  -0.1617 1.5331 -0.4426
v  -0.1626 1.4563 -0.4333
v  -0.1537 1.3142 -0.3642
v  -0.1404 1.2565 -0.2971
v  -0.1922 1.2776 -0.2596
v  -0.1942 1.3304 -0.3331
v  -0.2476 1.2964 -0.2200
v  -0.2711 1.3523 -0.2789
v  -0.2831 1.3232 -0.1767
v  -0.3062 1.3743 -0.2323
v  -0.3098 1.3772 -0.0815
v  -0.2692 1.3134 -0.0328
v  -0.2613 1.3549 0.0745
v  -0.3109 1.4171 0.0692
v  -0.3000 1.4844 -0.3337
v  -0.2050 1.4624 -0.4052
# 177 vertices

vn 0.4646 0.7199 -0.5156
vn 0.6086 0.4838 -0.6289
vn 0.3665 0.5041 -0.7820
vn 0.2639 0.7751 -0.5741
vn 0.2684 0.9335 -0.2377
vn 0.5034 0.8382 -0.2096
vn 0.7419 0.5990 -0.3012
vn 0.5493 -0.8283 -0.1110
vn 0.6031 -0.7967 0.0392
vn 0.4035 -0.9094 0.1006
vn 0.4546 -0.8772 -0.1548
vn 0.4930 0.7383 0.4603
vn 0.3741 0.8277 0.4184
vn 0.3576 0.6371 0.6828
vn 0.5224 0.4413 0.7296
vn 0.3253 -0.5649 0.7583
vn 0.1326 -0.5063 0.8521
vn 0.2391 -0.6839 0.6893
vn 0.2351 -0.7916 0.5640
vn 0.5857 -0.6418 0.4951
vn 0.7563 -0.5104 0.4093
vn 0.4517 -0.4036 0.7956
vn 0.1823 -0.3248 0.9280
vn 0.0000 0.7637 -0.6456
vn 0.0000 0.9491 -0.3150
vn 0.0977 0.9534 -0.2855
vn 0.1046 0.7845 -0.6112
vn 0.1642 0.5329 -0.8301
vn 0.0000 0.5398 -0.8418
vn 0.0000 -0.9964 -0.0851
vn 0.0000 -0.9701 -0.2427
vn 0.3087 -0.9346 -0.1770
vn 0.2752 -0.9603 0.0459
vn 0.1528 -0.8189 0.5532
vn 0.2216 -0.8918 0.3944
vn 0.3573 -0.8716 0.3356
vn 0.0646 -0.4374 0.8970
vn 0.0596 -0.3047 0.9506
vn 0.0757 0.0305 0.9967
vn 0.2810 -0.0663 0.9574
vn 0.2928 0.3125 0.9037
vn 0.1598 0.5081 0.8463
vn 0.2944 0.7902 0.5375
vn 0.3718 0.8684 0.3281
vn 0.4407 0.8709 0.2173
vn 0.3485 0.9015 0.2567
vn 0.4163 0.8737 0.2516
vn 0.4460 0.8317 0.3307
vn 0.4410 0.8960 0.0515
vn 0.3569 0.9327 0.0510
vn 0.0000 0.9845 -0.1751
vn 0.1794 0.9776 -0.1099
vn 0.6577 0.7514 -0.0534
vn 0.6508 0.7343 0.1931
vn 0.8228 0.5519 -0.1355
vn 0.8518 0.4770 0.2164
vn 0.9263 0.3236 -0.1932
vn 0.6278 0.1720 0.7592
vn 0.9574 0.1015 0.2703
vn 0.6449 -0.1459 0.7502
vn 0.8904 -0.3117 0.3317
vn 0.9208 -0.3876 -0.0448
vn 0.9797 0.0045 -0.2003
vn 0.9160 -0.1556 -0.3698
vn 0.9131 0.0614 -0.4030
vn 0.8579 0.3328 -0.3915
vn 0.7553 0.0198 -0.6551
vn 0.6932 0.2664 -0.6697
vn 0.5425 -0.0243 -0.8397
vn 0.4644 0.2643 -0.8453
vn 0.3129 0.0107 -0.9497
vn 0.2424 0.2967 -0.9237
vn 0.0000 0.3056 -0.9522
vn 0.0000 0.0551 -0.9985
vn 0.3734 -0.2638 -0.8894
vn 0.0000 -0.2404 -0.9707
vn 0.4277 -0.5829 -0.6909
vn 0.0000 -0.5891 -0.8081
vn 0.3740 -0.8243 -0.4250
vn 0.0000 -0.8612 -0.5082
vn 0.5350 -0.7644 -0.3599
vn 0.6125 -0.5456 -0.5720
vn 0.6952 -0.5260 -0.4899
vn 0.6218 -0.7361 -0.2675
vn 0.8543 -0.4309 -0.2907
vn 0.7777 -0.6234 -0.0815
vn 0.8398 -0.5304 0.1155
vn 0.7224 -0.6613 0.2023
vn 0.7796 -0.2445 -0.5766
vn 0.5853 -0.2775 -0.7618
vn -0.4646 0.7199 -0.5156
vn -0.2639 0.7751 -0.5741
vn -0.3665 0.5041 -0.7820
vn -0.6086 0.4838 -0.6289
vn -0.5034 0.8382 -0.2096
vn -0.2684 0.9335 -0.2377
vn -0.7419 0.5990 -0.3012
vn -0.5493 -0.8283 -0.1110
vn -0.4546 -0.8772 -0.1548
vn -0.3948 -0.9120 0.1114
vn -0.6031 -0.7967 0.0392
vn -0.4532 0.7353 0.5039
vn -0.4801 0.4445 0.7562
vn -0.3576 0.6371 0.6828
vn -0.3653 0.8289 0.4235
vn -0.2542 -0.5442 0.7995
vn -0.3395 -0.6443 0.6852
vn -0.2375 -0.6778 0.6958
vn -0.1326 -0.5063 0.8521
vn -0.3824 -0.3599 0.8510
vn -0.6093 -0.4840 0.6281
vn -0.1823 -0.3248 0.9280
vn -0.1046 0.7845 -0.6112
vn -0.0977 0.9534 -0.2855
vn -0.1642 0.5329 -0.8301
vn -0.2800 -0.9586 0.0521
vn -0.3087 -0.9346 -0.1770
vn -0.1649 -0.8568 0.4885
vn -0.2648 -0.8033 0.5334
vn -0.3535 -0.8746 0.3318
vn -0.2312 -0.8940 0.3839
vn -0.0646 -0.4374 0.8970
vn -0.0596 -0.3047 0.9506
vn -0.1730 0.4853 0.8571
vn -0.2615 0.2968 0.9184
vn -0.2723 -0.0501 0.9609
vn -0.1130 0.0562 0.9920
vn -0.2944 0.7902 0.5375
vn -0.3200 0.8986 0.3002
vn -0.3381 0.8934 0.2958
vn -0.3291 0.8949 0.3014
vn -0.3397 0.8998 0.2737
vn -0.4387 0.8706 0.2229
vn -0.4393 0.8359 0.3291
vn -0.4196 0.8633 0.2804
vn -0.3569 0.9327 0.0510
vn -0.4410 0.8960 0.0515
vn -0.1794 0.9776 -0.1099
vn -0.6577 0.7514 -0.0534
vn -0.8228 0.5519 -0.1355
vn -0.6460 0.7463 0.1605
vn -0.9263 0.3236 -0.1932
vn -0.8632 0.4762 0.1678
vn -0.4652 0.7915 0.3964
vn -0.6578 0.5662 0.4967
vn -0.9746 0.1001 0.2004
vn -0.7926 0.2354 0.5625
vn -0.5523 0.1762 0.8148
vn -0.7818 -0.2198 0.5835
vn -0.5366 -0.1084 0.8368
vn -0.9076 -0.3570 0.2207
vn -0.9797 0.0045 -0.2003
vn -0.9208 -0.3876 -0.0448
vn -0.9131 0.0614 -0.4030
vn -0.9160 -0.1556 -0.3698
vn -0.8579 0.3328 -0.3915
vn -0.6932 0.2664 -0.6697
vn -0.7553 0.0198 -0.6551
vn -0.4644 0.2643 -0.8453
vn -0.5425 -0.0243 -0.8397
vn -0.2424 0.2967 -0.9237
vn -0.3129 0.0107 -0.9497
vn -0.3734 -0.2638 -0.8894
vn -0.4277 -0.5829 -0.6909
vn -0.3740 -0.8243 -0.4250
vn -0.5350 -0.7644 -0.3599
vn -0.6125 -0.5456 -0.5720
vn -0.6218 -0.7361 -0.2675
vn -0.6952 -0.5260 -0.4899
vn -0.7777 -0.6234 -0.0815
vn -0.8543 -0.4309 -0.2907
vn -0.8398 -0.5304 0.1155
vn -0.7224 -0.6613 0.2023
vn -0.5745 -0.6876 0.4441
vn -0.7868 -0.5491 0.2820
vn -0.7796 -0.2445 -0.5766
vn -0.5853 -0.2775 -0.7618
# 177 vertex normals

g Group15399
usemtl default
s 1
f 1//1 2//2 3//3 4//4 
f 1//1 4//4 5//5 6//6 
f 1//1 6//6 7//7 2//2 
f 8//8 9//9 10//10 11//11 
f 12//12 13//13 14//14 15//15 
f 16//16 17//17 18//18 19//19 20//20 
f 16//16 20//20 21//21 22//22 
f 16//16 22//22 23//23 17//17 
f 24//24 25//25 26//26 27//27 
f 24//24 27//27 28//28 29//29 
f 30//30 31//31 32//32 33//33 
f 34//34 35//35 36//36 19//19 
f 34//34 19//19 18//18 
f 37//37 17//17 23//23 38//38 
f 39//39 40//40 41//41 42//42 
f 42//42 41//41 14//14 43//43 
f 43//43 14//14 13//13 44//44 
f 44//44 13//13 45//45 46//46 
f 44//44 46//46 47//47 48//48 
f 47//47 46//46 49//49 50//50 
f 51//51 52//52 26//26 25//25 
f 52//52 50//50 5//5 26//26 
f 50//50 49//49 6//6 5//5 
f 49//49 53//53 7//7 6//6 
f 49//49 46//46 45//45 53//53 
f 45//45 54//54 55//55 53//53 
f 54//54 56//56 57//57 55//55 
f 54//54 45//45 13//13 12//12 
f 54//54 12//12 15//15 56//56 
f 15//15 58//58 59//59 56//56 
f 58//58 60//60 61//61 59//59 
f 58//58 15//15 14//14 41//41 
f 58//58 41//41 40//40 60//60 
f 60//60 22//22 21//21 61//61 
f 60//60 40//40 23//23 22//22 
f 61//61 62//62 63//63 59//59 
f 63//63 57//57 56//56 59//59 
f 57//57 63//63 64//64 65//65 
f 57//57 65//65 66//66 55//55 
f 66//66 7//7 53//53 55//55 
f 66//66 65//65 67//67 68//68 
f 66//66 68//68 2//2 7//7 
f 68//68 67//67 69//69 70//70 
f 68//68 70//70 3//3 2//2 
f 70//70 69//69 71//71 72//72 
f 70//70 72//72 28//28 3//3 
f 28//28 72//72 73//73 29//29 
f 28//28 27//27 4//4 3//3 
f 27//27 26//26 5//5 4//4 
f 72//72 71//71 74//74 73//73 
f 74//74 71//71 75//75 76//76 
f 76//76 75//75 77//77 78//78 
f 78//78 77//77 79//79 80//80 
f 80//80 79//79 32//32 31//31 
f 32//32 79//79 81//81 11//11 
f 32//32 11//11 10//10 33//33 
f 81//81 79//79 77//77 82//82 
f 81//81 82//82 83//83 84//84 
f 81//81 84//84 8//8 11//11 
f 84//84 83//83 85//85 86//86 
f 84//84 86//86 9//9 8//8 
f 86//86 85//85 62//62 87//87 
f 86//86 87//87 88//88 9//9 
f 88//88 36//36 10//10 9//9 
f 36//36 35//35 33//33 10//10 
f 36//36 88//88 20//20 19//19 
f 88//88 87//87 21//21 20//20 
f 21//21 87//87 62//62 61//61 
f 62//62 85//85 64//64 63//63 
f 64//64 85//85 83//83 89//89 
f 64//64 89//89 67//67 65//65 
f 89//89 83//83 82//82 90//90 
f 89//89 90//90 69//69 67//67 
f 90//90 82//82 77//77 75//75 
f 90//90 75//75 71//71 69//69 
f 40//40 39//39 38//38 23//23 
f 91//91 92//92 93//93 94//94 
f 91//91 95//95 96//96 92//92 
f 91//91 94//94 97//97 95//95 
f 98//98 99//99 100//100 101//101 
f 102//102 103//103 104//104 105//105 
f 106//106 107//107 108//108 109//109 
f 106//106 110//110 111//111 107//107 
f 106//106 109//109 112//112 110//110 
f 24//24 113//113 114//114 25//25 
f 24//24 29//29 115//115 113//113 
f 30//30 116//116 117//117 31//31 
f 118//118 119//119 120//120 121//121 
f 122//122 123//123 112//112 109//109 
f 124//124 125//125 126//126 127//127 
f 124//124 128//128 104//104 125//125 
f 128//128 129//129 105//105 104//104 
f 129//129 130//130 131//131 105//105 
f 130//130 132//132 133//133 131//131 
f 130//130 134//134 135//135 132//132 
f 135//135 136//136 137//137 132//132 
f 51//51 25//25 114//114 138//138 
f 138//138 114//114 96//96 136//136 
f 96//96 95//95 137//137 136//136 
f 137//137 95//95 97//97 139//139 
f 137//137 139//139 133//133 132//132 
f 139//139 140//140 141//141 133//133 
f 141//141 140//140 142//142 143//143 
f 141//141 144//144 131//131 133//133 
f 141//141 143//143 145//145 144//144 
f 145//145 143//143 146//146 147//147 
f 145//145 103//103 102//102 144//144 
f 145//145 147//147 148//148 103//103 
f 148//148 147//147 149//149 150//150 
f 148//148 125//125 104//104 103//103 
f 148//148 150//150 126//126 125//125 
f 147//147 146//146 151//151 149//149 
f 150//150 149//149 111//111 110//110 
f 150//150 110//110 112//112 126//126 
f 146//146 152//152 153//153 151//151 
f 146//146 143//143 142//142 152//152 
f 142//142 154//154 155//155 152//152 
f 142//142 140//140 156//156 154//154 
f 140//140 139//139 97//97 156//156 
f 156//156 157//157 158//158 154//154 
f 156//156 97//97 94//94 157//157 
f 157//157 159//159 160//160 158//158 
f 157//157 94//94 93//93 159//159 
f 159//159 161//161 162//162 160//160 
f 159//159 93//93 115//115 161//161 
f 115//115 29//29 73//73 161//161 
f 115//115 93//93 92//92 113//113 
f 113//113 92//92 96//96 114//114 
f 73//73 74//74 162//162 161//161 
f 74//74 76//76 163//163 162//162 
f 76//76 78//78 164//164 163//163 
f 78//78 80//80 165//165 164//164 
f 80//80 31//31 117//117 165//165 
f 117//117 99//99 166//166 165//165 
f 117//117 116//116 100//100 99//99 
f 166//166 167//167 164//164 165//165 
f 166//166 168//168 169//169 167//167 
f 166//166 99//99 98//98 168//168 
f 168//168 170//170 171//171 169//169 
f 168//168 98//98 101//101 170//170 
f 170//170 172//172 153//153 171//171 
f 170//170 101//101 173//173 172//172 
f 101//101 100//100 120//120 173//173 
f 120//120 100//100 116//116 121//121 
f 120//120 119//119 174//174 173//173 
f 174//174 175//175 172//172 173//173 
f 174//174 107//107 111//111 175//175 
f 174//174 119//119 108//108 107//107 
f 175//175 151//151 153//153 172//172 
f 175//175 111//111 149//149 151//151 
f 153//153 152//152 155//155 171//171 
f 155//155 176//176 169//169 171//171 
f 155//155 154//154 158//158 176//176 
f 176//176 177//177 167//167 169//169 
f 176//176 158//158 160//160 177//177 
f 177//177 163//163 164//164 167//167 
f 177//177 160//160 162//162 163//163 
f 144//144 102//102 105//105 131//131 
f 126//126 112//112 123//123 127//127 
# 158 polygons - 1 triangles

